<?xml version="1.0" encoding="UTF-8" standalone="no"?>
<!-- Created with Inkscape (http://www.inkscape.org/) -->

<svg xmlns:dc="http://purl.org/dc/elements/1.1/" xmlns:cc="http://creativecommons.org/ns#" xmlns:rdf="http://www.w3.org/1999/02/22-rdf-syntax-ns#" xmlns:svg="http://www.w3.org/2000/svg" xmlns="http://www.w3.org/2000/svg" version="1.1" width="40.64122" height="40.589554" viewBox="0 0 40.641219 40.589555" id="svg10486">
  <defs id="defs10488" />
  <metadata id="metadata10491">
    <rdf:RDF>
      <cc:Work rdf:about="">
        <dc:format>image/svg+xml</dc:format>
        <dc:type rdf:resource="http://purl.org/dc/dcmitype/StillImage" />
        <dc:title></dc:title>
      </cc:Work>
    </rdf:RDF>
  </metadata>
  <g transform="translate(0,-1011.7726)" id="layer1">
    <path d="m 17.422568,1052.2161 c -8.4025601,-1.2265 -15.2442601,-7.6073 -16.9702401,-15.827 c -2.44989,-11.667 5.30891,-22.804 17.0495201,-24.473 c 1.37052,-0.1948 4.3061,-0.1916 5.72473,0.012 c 3.35462,0.4677 6.58976,1.807 9.35962,3.8741 c 0.94925,0.7084 2.81153,2.5112 3.59394,3.479 c 1.73933,2.1518 3.04516,4.704 3.78305,7.3936 c 0.52429,1.9113 0.67802,3.1349 0.67802,5.399 c 0,2.2643 -0.15373,3.4877 -0.67802,5.3991 c -0.73789,2.6896 -2.04372,5.2418 -3.78305,7.3936 c -0.78241,0.9678 -2.64469,2.7706 -3.59394,3.479 c -2.76986,2.0671 -6.005,3.4062 -9.35962,3.8742 c -1.35827,0.1895 -4.5124,0.1905 -5.80401,0 z m 4.87628,-13.6034 l 0.0254,-6.5939 l 1.8269,0 c 1.39538,0 1.82691,-0.03 1.82715,-0.1236 c 5e-4,-0.1695 0.27755,-3.1741 0.34607,-3.754 l 0.0557,-0.4692 l -2.02863,0 l -2.0285,0 l 0,-1.6253 c 0,-1.7037 0.0626,-2.0254 0.43078,-2.2166 c 0.12443,-0.064 0.90202,-0.12 1.89073,-0.1344 l 1.67935,-0.025 l 0,-2.272 l 0,-2.272 l -2.42021,0.012 c -2.7012,0.012 -3.46667,0.1188 -4.49954,0.6265 c -0.72156,0.3543 -1.4535,1.0524 -1.78064,1.6981 c -0.44464,0.8773 -0.53295,1.5326 -0.53455,3.9617 l -10e-4,2.2474 l -1.38301,0 l -1.38301,0 l 0,2.2226 l 0,2.2228 l 1.38301,0 l 1.38301,0 l 0,6.5708 l 0,6.5709 l 2.59311,-0.026 l 2.59299,-0.026 l 0.0255,-6.594 z" id="path3613" style="fill:#f6f7fb;fill-opacity:1" />
  </g>
</svg>
