<?xml version="1.0" encoding="UTF-8" standalone="no"?>
<!-- Created with Inkscape (http://www.inkscape.org/) -->

<svg xmlns:dc="http://purl.org/dc/elements/1.1/" xmlns:cc="http://creativecommons.org/ns#" xmlns:rdf="http://www.w3.org/1999/02/22-rdf-syntax-ns#" xmlns:svg="http://www.w3.org/2000/svg" xmlns="http://www.w3.org/2000/svg" version="1.1" width="40.64122" height="40.589554" viewBox="0 0 40.641219 40.589555" id="svg10486">
  <defs id="defs10488" />
  <metadata id="metadata10491">
    <rdf:RDF>
      <cc:Work rdf:about="">
        <dc:format>image/svg+xml</dc:format>
        <dc:type rdf:resource="http://purl.org/dc/dcmitype/StillImage" />
        <dc:title></dc:title>
      </cc:Work>
    </rdf:RDF>
  </metadata>
  <g transform="translate(0,-1011.7726)" id="layer1">
    <path d="m 18.649003,1052.3184 c -4.91238,-0.4616 -9.2508901,-2.4855 -12.6810798,-5.9157 c -7.3487902,-7.3487 -7.9858802,-18.8933 -1.49358,-27.0666 c 0.68866,-0.867 2.2599101,-2.4384 3.1270401,-3.127 c 2.8774597,-2.2857 6.1696197,-3.7112 9.8668397,-4.2729 c 1.61404,-0.2451 4.08545,-0.2451 5.699621,0 c 4.50028,0.6835 8.34394,2.6109 11.4998,5.7669 c 1.4185,1.4184 2.45891,2.7912 3.43662,4.534 c 1.84063,3.2816 2.77517,7.4964 2.48489,11.2065 c -0.39467,5.0413 -2.40673,9.4448 -5.92114,12.9591 c -3.19655,3.1968 -7.24404,5.2002 -11.72478,5.8042 c -1.072811,0.1444 -3.321961,0.2029 -4.294231,0.1113 z m -0.914,-10.0005 c 0.34964,-0.093 1.00837,-0.3529 1.46377,-0.5774 c 0.68965,-0.3401 0.93676,-0.516 1.48035,-1.0541 c 0.99452,-0.9845 1.388691,-1.9021 1.386101,-3.2259 c -0.004,-1.8253 -0.571171,-2.8788 -2.284031,-4.24 c -1.71089,-1.3599 -1.85189,-1.7833 -0.87072,-2.6163 c 1.72931,-1.4682 2.2818,-2.4406 2.2818,-4.0164 c 0,-0.9387 -0.13667,-1.526 -0.54346,-2.3357 l -0.30537,-0.6079 l 0.28521,-0.049 c 0.17477,-0.031 0.5938,-0.2746 1.08024,-0.6289 c 0.718471,-0.5234 0.797131,-0.6058 0.818521,-0.8564 c 0.0167,-0.1954 -0.0219,-0.3187 -0.13097,-0.4174 c -0.14385,-0.1303 -0.41582,-0.1382 -3.918121,-0.115 l -3.76363,0.025 l -0.75495,0.2617 c -1.56717,0.543 -2.90467,1.6406 -3.51862,2.8877 c -0.35806,0.7273 -0.4510691,1.1253 -0.4535391,1.9405 c -0.004,1.3205 0.4722091,2.4346 1.4610491,3.4187 c 0.93948,0.9349 1.48381,1.1801 3.36785,1.5173 c 0.16672,0.03 0.17761,0.063 0.13494,0.4079 c -0.0416,0.3359 0.0585,0.8927 0.23289,1.2974 c 0.0474,0.1101 -0.0469,0.1337 -0.68421,0.1743 c -0.95309,0.061 -1.83061,0.2954 -2.73052,0.7302 c -2.5341101,1.2243 -3.7524997,3.5976 -2.8195701,5.4927 c 0.66021,1.341 2.2851401,2.2938 4.6059101,2.7007 c 0.95445,0.1675 3.37193,0.1027 4.17908,-0.1125 z m -3.13942,-1.8357 c -1.25536,-0.2361 -2.30728,-1.0702 -2.59385,-2.0567 c -0.23747,-0.8164 -0.0364,-1.5282 0.61062,-2.162 c 0.95284,-0.9335 2.72681,-1.4044 4.14482,-1.1002 c 0.75409,0.1616 2.24631,1.3004 2.53745,1.9365 c 0.0845,0.1845 0.14632,0.5035 0.14743,0.7605 c 0.005,1.2756 -0.70399,2.1139 -2.10877,2.4934 c -0.54902,0.1482 -2.217,0.2266 -2.7377,0.1285 z m 1.07294,-10.6072 c -0.51278,-0.162 -0.7693,-0.3251 -1.20936,-0.769 c -0.80071,-0.8079 -1.24696,-1.9468 -1.24324,-3.1731 c 0.004,-1.2317 0.4377,-2.0347 1.27181,-2.3533 c 1.29841,-0.4959 2.99656,0.9436 3.40904,2.8901 c 0.352,1.6612 -0.23685,3.1476 -1.35914,3.4302 c -0.41507,0.1039 -0.46504,0.1026 -0.86911,-0.025 z m 12.196871,6.0572 c 0.15337,-0.1645 0.16215,-0.2722 0.16215,-1.9869 l 0,-1.8131 l 1.75368,0 c 1.71609,0 2.00303,-0.036 2.15936,-0.2701 c 0.0322,-0.048 0.059,-0.4163 0.0597,-0.8182 c 10e-4,-1.0234 0.10179,-0.9782 -2.16245,-0.9782 l -1.81033,0 l 0,-1.8103 c 0,-2.265 0.046,-2.1636 -0.9829,-2.1636 c -1.1093,0 -1.03917,-0.1376 -1.06787,2.0997 l -0.0239,1.8742 l -1.82393,0 c -2.237161,0 -2.14192,-0.046 -2.14192,1.0276 c 0,0.6717 0.0111,0.7183 0.20939,0.8743 c 0.19765,0.1555 0.30908,0.1646 1.98707,0.1646 l 1.77756,0 l 0,1.7776 c 0,1.6779 0.009,1.7893 0.16474,1.9869 c 0.15584,0.1983 0.20259,0.2095 0.87109,0.2095 c 0.62447,0 0.72527,-0.02 0.86849,-0.174 z" id="path3617" style="fill:#f6f7fb;fill-opacity:1" />
  </g>
</svg>
