<?xml version="1.0" encoding="UTF-8" standalone="no"?>
<!-- Created with Inkscape (http://www.inkscape.org/) -->

<svg xmlns:dc="http://purl.org/dc/elements/1.1/" xmlns:cc="http://creativecommons.org/ns#" xmlns:rdf="http://www.w3.org/1999/02/22-rdf-syntax-ns#" xmlns:svg="http://www.w3.org/2000/svg" xmlns="http://www.w3.org/2000/svg" version="1.1" width="40.64122" height="40.589554" viewBox="0 0 40.641219 40.589555" id="svg10486">
  <defs id="defs10488" />
  <metadata id="metadata10491">
    <rdf:RDF>
      <cc:Work rdf:about="">
        <dc:format>image/svg+xml</dc:format>
        <dc:type rdf:resource="http://purl.org/dc/dcmitype/StillImage" />
        <dc:title></dc:title>
      </cc:Work>
    </rdf:RDF>
  </metadata>
  <g transform="translate(0,-1011.7726)" id="layer1">
    <path d="m 18.702039,1052.3174 c -7.56809,-0.6605 -14.1348401,-5.3896 -17.0994901,-12.3143 C 0.51451887,1037.4615 -1.1306255e-6,1034.8815 -1.1306255e-6,1031.9662 c 0,-3.1493 0.6737000006255,-6.0826 2.0355600306255,-8.8626 c 2.01898,-4.1219 5.18201,-7.2978 9.2923301,-9.3304 c 1.50359,-0.7436 2.70726,-1.1819 4.26454,-1.5532 c 1.78683,-0.4259 2.40771,-0.4889 4.79761,-0.4857 c 1.912121,0 2.379521,0.031 3.359321,0.2057 c 5.68268,1.0125 10.50886,4.1891 13.65322,8.9868 c 0.66949,1.0215 1.75616,3.2143 2.13562,4.3091 c 0.79304,2.2884 1.10534,4.2129 1.10299,6.7967 c -0.002,2.1617 -0.12851,3.2119 -0.61705,5.1178 c -2.10481,8.2124 -9.25461,14.2925 -17.80002,15.1368 c -0.859091,0.085 -2.712341,0.1014 -3.522081,0.03 z m -0.79973,-12.2011 c 3.00757,-0.2462 5.509031,-1.4326 7.382311,-3.5009 c 1.37361,-1.5166 2.3105,-3.1628 2.78544,-4.8937 c 0.31551,-1.1504 0.53826,-2.384 0.53826,-2.9823 c 0,-0.2347 0.0376,-0.5259 0.0836,-0.6469 c 0.0461,-0.1212 0.46591,-0.6245 0.93293,-1.1186 c 0.46702,-0.4942 0.8492,-0.9551 0.8492,-1.0242 c 0,-0.1002 -0.13333,-0.08 -0.64426,0.094 c -0.35422,0.1212 -0.7531,0.2084 -0.88643,0.1944 l -0.24229,-0.025 l 0.49003,-0.6099 c 0.4904,-0.6104 0.88853,-1.2801 0.80851,-1.3601 c -0.0234,-0.024 -0.31601,0.075 -0.65032,0.22 c -0.33431,0.1443 -0.87592,0.35 -1.20355,0.4569 l -0.5959,0.1944 l -0.5442,-0.3697 c -1.15642,-0.7852 -2.14513,-1.0277 -3.30465,-0.8105 c -2.033451,0.3811 -3.531111,2.386 -3.311821,4.4334 l 0.0599,0.5597 l -0.3849,-0.056 c -3.00633,-0.434 -5.00305,-1.3929 -7.13087,-3.4245 l -0.93713,-0.8947 l -0.0965,0.2528 c -0.34149,0.895 -0.44414,2.0456 -0.25553,2.8635 c 0.13345,0.5794 0.49794,1.2675 0.93726,1.7696 c 0.21446,0.2453 0.39009,0.4695 0.39009,0.4982 c 0,0.1051 -0.43016,0.047 -0.93577,-0.1263 c -0.28558,-0.099 -0.54853,-0.1483 -0.58415,-0.1113 c -0.0895,0.093 0.28978,1.4935 0.53109,1.9604 c 0.29114,0.5631 1.14987,1.3607 1.89208,1.7571 l 0.65155,0.3482 l -0.7552,0.044 c -0.73838,0.043 -0.7547,0.05 -0.73095,0.262 c 0.0372,0.3325 0.5228,1.0291 0.98388,1.411 c 0.55509,0.46 1.08259,0.7554 1.86475,1.0444 l 0.65168,0.2407 l -0.42967,0.2683 c -1.14739,0.7166 -2.35626,1.0941 -3.89449,1.2161 c -0.58637,0.047 -1.13614,0.085 -1.22173,0.087 c -0.33604,0 -0.11551,0.1708 0.79973,0.6034 c 1.72783,0.817 2.75105,1.0776 4.90868,1.251 c 0.0733,0 0.61309,-0.028 1.19934,-0.077 z" id="path3615" style="fill:#f6f7fb;fill-opacity:1" />
  </g>
</svg>
