<?xml version="1.0" encoding="UTF-8" standalone="no"?>
<!-- Created with Inkscape (http://www.inkscape.org/) -->

<svg xmlns:dc="http://purl.org/dc/elements/1.1/" xmlns:cc="http://creativecommons.org/ns#" xmlns:rdf="http://www.w3.org/1999/02/22-rdf-syntax-ns#" xmlns:svg="http://www.w3.org/2000/svg" xmlns="http://www.w3.org/2000/svg" version="1.1" width="40.64122" height="40.589554" viewBox="0 0 40.641219 40.589555" id="svg10486">
  <defs id="defs10488" />
  <metadata id="metadata10491">
    <rdf:RDF>
      <cc:Work rdf:about="">
        <dc:format>image/svg+xml</dc:format>
        <dc:type rdf:resource="http://purl.org/dc/dcmitype/StillImage" />
        <dc:title></dc:title>
      </cc:Work>
    </rdf:RDF>
  </metadata>
  <g transform="translate(0,-1011.7726)" id="layer1">
    <path d="m 18.40646,1052.2689 c -4.16696,-0.4276 -7.95781,-2.0247 -11.1841715,-4.7123 c -0.84821,-0.7066 -2.41748,-2.3611 -3.10478,-3.2735 c -2.54796,-3.3824 -3.93455996,-7.2909 -4.10226996,-11.5637 c -0.24427,-6.2198 2.45915996,-12.2655 7.30129996,-16.3282 c 6.3064015,-5.2913 15.3032625,-6.2197 22.5998625,-2.3324 c 1.76419,0.9398 3.38888,2.1608 4.87009,3.6598 c 3.18987,3.2281 5.06006,7.0499 5.74773,11.7451 c 0.14187,0.9692 0.14286,4.0364 10e-4,5.0566 c -0.40382,2.9149 -1.35543,5.6451 -2.78828,7.9997 c -2.15973,3.5492 -5.46351,6.4593 -9.19944,8.1033 c -3.15525,1.3884 -6.832301,1.9851 -10.141651,1.6456 z m 12.497661,-5.5488 c -2.09987,-1.1185 -3.73716,-2.5981 -4.96718,-4.489 c -0.42757,-0.657 -1.03497,-1.8557 -1.03497,-2.0421 c 0,-0.047 0.73739,-0.078 1.83272,-0.078 c 1.99894,0 2.50381,-0.074 3.17243,-0.466 c 0.89509,-0.5244 1.56099,-1.3995 1.77249,-2.3292 c 0.18193,-0.8002 0.19282,-12.5386 0.0124,-13.2171 c -0.25194,-0.9467 -0.81753,-1.7326 -1.61478,-2.2442 l -0.41644,-0.2672 l 0.30327,-0.3107 l 0.30339,-0.3107 l -0.46616,-0.9477 c -0.91697,-1.8644 -1.17065,-2.119 -2.97801,-2.9881 l -0.95173,-0.4575 l -2.35576,2.3547 l -2.355771,2.3548 l -6.00177,0 c -3.74707,0 -6.1372115,0.033 -6.3624415,0.085 c -0.97127,0.224 -2.0661,1.0701 -2.4677,1.9072 c -0.42064,0.8763 -0.41742,0.8195 -0.41631,7.42 c 7.4e-4,3.8621 0.0322,6.3016 0.0842,6.5274 c 0.21471,0.9312 0.90337,1.8727 1.73352,2.3698 c 0.85909,0.5144 0.8957,0.5173 6.4577915,0.5173 l 5.03731,0 l 0.12022,0.2324 c 0.22609,0.4374 1.11957,1.5807 1.75492,2.2457 c 2.054851,2.1508 4.804171,3.6457 7.831281,4.2579 c 0.91141,0.1844 1.85126,0.3075 2.46658,0.3232 l 0.37006,0.012 l -0.86343,-0.4598 z m -19.365581,-11.556 c 0.0249,-0.1052 0.22609,-0.9279 0.44735,-1.8278 l 0.40209,-1.6363 l 6.86273,-6.8627 l 6.862601,-6.8626 l 0.73492,0.3794 c 0.88976,0.4596 1.12822,0.6992 1.63396,1.6419 l 0.39046,0.7277 l -6.84999,6.8504 l -6.849981,6.8502 l -1.69259,0.4213 c -0.93095,0.2318 -1.75875,0.4412 -1.83964,0.4657 c -0.11935,0.036 -0.13852,0.012 -0.10191,-0.1472 z" id="path3619" style="fill:#f6f7fb;fill-opacity:1" />
  </g>
</svg>
