<?xml version="1.0" encoding="UTF-8" standalone="no"?>
<!-- Created with Inkscape (http://www.inkscape.org/) -->

<svg xmlns:dc="http://purl.org/dc/elements/1.1/" xmlns:cc="http://creativecommons.org/ns#" xmlns:rdf="http://www.w3.org/1999/02/22-rdf-syntax-ns#" xmlns:svg="http://www.w3.org/2000/svg" xmlns="http://www.w3.org/2000/svg" xmlns:sodipodi="http://sodipodi.sourceforge.net/DTD/sodipodi-0.dtd" xmlns:inkscape="http://www.inkscape.org/namespaces/inkscape" width="354.53232" height="220.50258" id="svg11215" version="1.1" inkscape:version="0.49 r12742" viewBox="0 0 354.53231 220.50258" sodipodi:docname="PonupLogoComplete.svg" inkscape:export-filename="/home/pablolizardo/sources/site/images/PonupLogoComplete.png" inkscape:export-xdpi="90" inkscape:export-ydpi="90">
  <defs id="defs11217" />
  <sodipodi:namedview id="base" pagecolor="#ffffff" bordercolor="#666666" borderopacity="1.0" inkscape:pageopacity="0.0" inkscape:pageshadow="2" inkscape:zoom="1.4" inkscape:cx="70.418992" inkscape:cy="137.89135" inkscape:document-units="px" inkscape:current-layer="layer1" showgrid="false" inkscape:window-width="1920" inkscape:window-height="1017" inkscape:window-x="0" inkscape:window-y="27" inkscape:window-maximized="1" fit-margin-top="0" fit-margin-left="0" fit-margin-right="0" fit-margin-bottom="0" />
  <metadata id="metadata11220">
    <rdf:RDF>
      <cc:Work rdf:about="">
        <dc:format>image/svg+xml</dc:format>
        <dc:type rdf:resource="http://purl.org/dc/dcmitype/StillImage" />
        <dc:title></dc:title>
      </cc:Work>
    </rdf:RDF>
  </metadata>
  <g inkscape:label="Capa 1" inkscape:groupmode="layer" id="layer1" transform="translate(5.4663033e-6,-833.97211)">
    <path style="font-style:normal;font-variant:normal;font-weight:normal;font-stretch:normal;text-indent:0;text-align:start;text-decoration:none;line-height:normal;letter-spacing:normal;word-spacing:normal;text-transform:none;direction:ltr;block-progression:tb;writing-mode:lr-tb;text-anchor:start;baseline-shift:baseline;color:#000000;fill:#000000;fill-opacity:0.08433736;stroke:none;stroke-width:10;marker:none;visibility:visible;display:inline;overflow:visible;enable-background:accumulate;font-family:Sans;-inkscape-font-specification:Sans" d="M 75.386717,835.97797 C 58.265643,835.32386 44.827828,849.4643 40.291764,864.98595 c -4.724006,7.33809 -5.441645,24.01058 -10.400707,26.24523 c -7.722694,-4.81264 -8.529584,-18.75226 -19.594,-17.97202 c -9.31798197,0.26204 -13.3196586,12.27267 -7.5590265,19.00491 c 4.5762896,11.53503 18.0375935,18.24145 24.7646955,25.40315 c -1.623819,23.22241 0.392691,47.34343 8.970333,69.082 c 5.608688,9.14402 21.27997,3.65101 19.952449,-6.99362 c -5.522726,-18.7672 -8.738827,-38.43194 -7.210666,-58.05888 c 30.819334,2.72437 62.936958,-24.90554 58.537608,-56.93786 C 105.66158,848.938 91.411621,836.00619 75.386717,835.97797 Z m -1.150391,21.96484 c 21.137887,2.96456 10.163534,31.27266 -3.857339,37.1339 c -7.08256,4.42801 -23.700605,8.87051 -15.704209,-4.65936 c 4.934858,-10.48 5.842529,-30.56597 19.561548,-32.47454 z m 248.291014,55.56055 c -19.03598,-0.65323 -34.33932,18.17133 -31.82275,36.56987 c 1.27164,14.43755 -1.79325,28.68706 -4.71719,42.59319 c 0.31138,10.73148 16.6506,13.77328 20.80286,3.87267 c 5.15787,-8.09138 -0.17495,-26.46085 13.96131,-19.25584 c 22.94803,2.22616 41.37539,-24.76181 30.64354,-45.2634 c -5.07384,-11.00943 -16.70869,-18.58467 -28.86777,-18.51649 z m -169.72265,4.14648 c -10.70075,0.0351 -12.1512,12.70031 -12.19201,20.81869 c -0.48533,11.70536 0.75458,25.27737 9.08612,34.15626 c 8.23809,6.86845 21.32704,-3.34785 16.66466,-13.00725 c -12.56505,-16.00977 20.50603,-25.39453 17.34725,-5.05764 c -5.43285,7.18257 -1.02854,19.31284 8.64611,18.94447 c 12.24508,-0.84775 14.54374,-16.87444 13.04994,-26.55317 c -2.66677,-19.39998 -25.4007,-32.08414 -43.35207,-24.29354 c -1.97399,-3.09913 -5.57562,-5.0491 -9.25,-5.00782 z m -52.05078,4.56055 c -22.519938,-1.00396 -39.610863,25.71437 -28.879812,45.66257 c 8.673633,19.97673 38.396152,24.50254 52.390032,7.67824 c 16.03049,-16.02872 7.39162,-46.32848 -14.40961,-51.965 c -2.94437,-0.90069 -6.02143,-1.36632 -9.10061,-1.37581 z m 163.24023,2.91406 c -9.14869,0.16075 -13.43394,11.93749 -7.75749,18.63904 c 5.85186,20.35729 -29.10715,14.43674 -17.40633,-3.02257 c 3.92514,-9.98174 -9.89284,-19.18808 -17.59286,-11.72138 c -14.28178,16.54797 -2.94318,45.7372 18.50036,49.35342 c 11.0636,0.97156 18.57981,-1.91042 27.63886,4.19747 c 10.01115,0.7261 13.03915,-10.78195 12.74912,-18.69053 c 0.80389,-12.4369 -0.21159,-27.12213 -8.95033,-36.51809 c -2.0321,-1.56027 -4.62261,-2.36735 -7.18133,-2.23736 z m 57.99805,10.28321 c 17.08879,-0.90477 10.01897,27.60988 -4.7688,18.61195 c -8.34296,-4.73775 -4.97486,-18.55832 4.7688,-18.61195 z m -221.77344,8.70703 c 17.08878,-0.90486 10.01858,27.6084 -4.768917,18.60992 c -8.337157,-4.66717 -4.935939,-18.64441 4.768917,-18.60992 z m 132.30273,56.20311 c -15.86281,-3.30451 -15.01465,22.7285 -27.52734,19.0215 c 6.55551,-6.1505 11.66067,-23.97119 -3.80273,-17.498 c -4.0486,5.3706 -11.12571,-7.41351 -17.56836,2.4882 c -1.46535,4.6505 -3.30343,-8.53776 -7.53711,0.3477 c -0.1087,8.9716 -21.00388,24.5144 -13.69532,6.293 c 8.69552,-13.62289 -19.09955,-12.96276 -23.16796,-2.9043 c -1.01126,7.881 -17.86156,29.0909 -12.04228,10.2747 c 0.92339,-5.2307 11.4631,-19.44314 -1.02999,-15.2552 c -12.04347,-9.69058 -29.528564,11.4163 -18.94922,21.7852 c 5.66977,4.9814 17.27882,-7.1841 12.37891,4.8417 c -12.94359,-2.1069 -33.749451,13.1997 -17.08203,23.7227 c 19.06593,6.5985 16.97439,-20.2132 29.73658,-24.2092 c 5.3732,-7.4513 17.48425,1.2115 22.20287,-11.201 c -4.15622,12.3709 12.16133,7.3889 14.10938,4.0801 c 2.75013,13.4421 10.12217,-10.5729 15.56054,-13.2793 c 18.056,-7.7487 -11.48062,16.7147 1.89531,17.7688 c 2.56302,-5.0535 15.20448,-26.65025 17.9543,-16.593 c -12.55065,8.5732 -2.02423,24.1182 9.35127,12.6238 c 4.52024,3.7021 16.6196,5.4553 23.77764,0.1711 c 10.76568,12.5258 32.96303,-6.2057 15.08598,-15.571 c -2.58726,-0.8698 3.96811,-9.11772 -4.7813,-6.4915 c -15.22842,5.3252 17.6604,16.5263 -0.62304,20.541 c -11.32718,2.4303 4.39471,-9.625 -5.32422,-6.5019 c -4.44268,5.5711 -28.18643,8.4602 -13.28923,1.4225 c 6.87356,-1.6449 16.67809,-14.4015 4.36735,-15.8776 z m -1.86718,4.7735 c 5.81243,3.5733 -16.70703,15.3232 -6.29492,3.873 c 1.46344,-2.0183 3.63969,-3.8829 6.29492,-3.873 z m -112.04297,1.6601 c 13.32868,4.8676 -15.98067,22.1998 -6.96915,4.4599 c 1.5557,-2.3387 3.99806,-4.4816 6.96915,-4.4599 z m 31.88476,0.1387 c 13.99209,4.5065 -16.12083,23.0169 -6.9701,4.4775 c 1.54392,-2.3482 3.99923,-4.4982 6.9701,-4.4775 z m -32.23047,28.4941 c 2.76989,11.2515 -20.106821,20.2297 -15.49218,5.3946 c 3.73067,-4.6364 10.21158,-4.3295 15.49218,-5.3946 z" id="path11831" inkscape:connector-curvature="0" />
    <g id="g8878" transform="matrix(1.1272324,0,0,1.1272324,-432.07643,2269.2388)">
      <g style="fill:#f6f7fb;fill-opacity:1" id="g57949" transform="matrix(0.78618628,0,0,0.78618628,-429.9969,-1458.3492)">
        <path style="font-style:normal;font-variant:normal;font-weight:normal;font-stretch:normal;text-indent:0;text-align:start;text-decoration:none;line-height:normal;letter-spacing:normal;word-spacing:normal;text-transform:none;direction:ltr;block-progression:tb;writing-mode:lr-tb;text-anchor:start;baseline-shift:baseline;color:#000000;fill:#f6f7fb;fill-opacity:1;stroke:none;stroke-width:10;marker:none;visibility:visible;display:inline;overflow:visible;enable-background:accumulate;font-family:Sans;-inkscape-font-specification:Sans" d="m 1117.1787,235.45616 c -10.9836,0.48811 -23.1099,6.59575 -30.4012,18.17866 a 12.378212,12.378212 0 0 0 -0.5413,0.92826 c -7.3332,14.26625 -12.5867,29.34096 -16.1676,44.71182 c -5.0269,-3.86116 -9.2614,-8.88672 -11.9126,-14.62026 a 12.40759,12.40759 0 1 0 -22.5108,10.44304 c 4.8221,10.42805 12.4278,19.39959 21.8917,25.91429 c 2.548,1.75389 5.4405,2.81567 8.1999,4.17723 c -2.4054,25.74928 0.2414,51.93919 8.2772,77.04667 a 12.379029,12.379029 0 0 0 23.5935,-7.50355 c -6.5225,-20.37914 -8.9513,-41.63672 -7.5808,-62.58106 c 11.3074,0.68778 22.6002,-1.63074 32.7212,-6.73 c 10.2606,-5.16949 19.025,-12.98874 25.2184,-22.66534 c 4.4872,-7.01192 7.7839,-15.25004 8.5092,-24.36716 c 0.7341,-9.23313 -1.3005,-18.95221 -7.1169,-27.15198 c -7.3839,-10.40952 -19.4309,-16.34688 -32.1799,-15.78062 z m 1.0827,24.75394 c 3.9041,-0.17341 8.6464,2.15024 10.9073,5.33757 c 1.9084,2.69048 2.9542,6.75331 2.6301,10.82984 c -0.3336,4.19261 -2.0089,8.76157 -4.7188,12.99581 c -3.7596,5.87435 -9.2429,10.86354 -15.4711,14.00147 c -5.5187,2.78036 -11.819,3.97788 -18.024,3.94515 c 3.052,-14.04747 7.7606,-27.74124 14.3882,-40.76665 c 3.838,-6.02308 4.7658,-6.09774 10.2883,-6.34319 z m 278.3274,62.73578 c -18.8837,0.90615 -33.6888,16.55866 -34.1142,35.19703 a 12.378212,12.378212 0 0 0 -0.077,0.30942 a 12.378212,12.378212 0 0 0 -0.077,1.54709 c 0.01,0.21095 -0.01,0.40732 0,0.61887 c 0.01,0.15953 0.068,0.30519 0.077,0.46415 c 0.7616,16.52108 0.064,32.15755 -4.6413,46.25894 a 12.390081,12.390081 0 0 0 23.5161,7.81296 c 2.4924,-7.4693 3.8635,-14.96164 4.796,-22.43328 c 4.3683,1.60904 9.0948,2.40143 14.0016,2.16598 c 19.733,-0.9469 35.2156,-17.9397 34.2687,-37.67241 c -0.9468,-19.73284 -18.0168,-35.21564 -37.7496,-34.26875 z m -189.9092,4.64136 a 12.378212,12.378212 0 0 0 -11.8355,10.211 c -2.9137,15.24096 -1.9648,27.04298 0.077,35.27437 c 0.4007,1.61636 0.972,2.54912 1.4698,3.94517 c 0.4834,1.68315 1.0417,3.32703 1.7792,4.95079 c 0.9897,2.09615 1.4917,3.00294 1.9336,3.71309 c 0.075,0.12018 0.1844,0.46726 0.2321,0.54151 c 0.074,0.11425 0.4644,0.77355 0.4644,0.77355 a 12.378212,12.378212 0 0 0 20.4993,-13.84675 c -0.8804,-1.40856 -1.4347,-2.92229 -1.7019,-4.40929 c -0.8018,-4.46102 1.0828,-8.93882 5.1054,-11.52605 c 5.364,-3.44989 12.0988,-1.96035 15.5487,3.40366 c 2.2391,3.48165 2.4385,7.81019 0.4639,11.44869 a 12.378212,12.378212 0 1 0 21.7374,11.83551 c 6.2622,-11.54061 5.7093,-25.62383 -1.3925,-36.6668 c -9.4273,-14.65765 -28.042,-20.23835 -43.7064,-14.00147 a 12.378212,12.378212 0 0 0 -10.6749,-5.64698 z m -60.3379,5.18285 c -19.7327,0.94689 -35.2156,17.93959 -34.2686,37.67242 c 0.9467,19.73271 18.0169,35.21563 37.7495,34.26875 c 19.733,-0.94691 35.2157,-17.93953 34.2689,-37.67241 c -0.9468,-19.73313 -18.0172,-35.21562 -37.7498,-34.26876 z m 186.0414,3.24898 a 12.378212,12.378212 0 0 0 -9.747,19.02958 c 0.832,1.30064 1.2981,2.67105 1.5473,4.09989 c 0.7477,4.28644 -1.0055,8.78431 -5.0281,11.37135 c -5.3644,3.45007 -12.1759,2.03779 -15.626,-3.32634 c -2.191,-3.40667 -2.3963,-7.69247 -0.5414,-11.29398 a 12.378212,12.378212 0 1 0 -21.9694,-11.37135 c -5.8857,11.42763 -5.2514,25.23646 1.7022,36.04793 c 9.3696,14.56816 27.7924,20.05761 43.3967,14.00147 a 12.378212,12.378212 0 0 0 22.9747,-4.02252 c 2.9162,-15.25274 1.8846,-27.14822 -0.1547,-35.42907 c -0.361,-1.46526 -0.8749,-2.27194 -1.315,-3.5584 c -0.5411,-1.99801 -1.2609,-3.96638 -2.1661,-5.87906 c -0.4898,-1.02758 -0.5487,-1.24987 -0.9281,-1.93392 c -0.3784,-0.68865 -0.6542,-1.41791 -1.0831,-2.0886 l -0.077,0.0774 c -0.036,-0.0554 -0.3095,-0.54149 -0.3095,-0.54149 a 12.378212,12.378212 0 0 0 -10.6752,-5.18285 z m 65.4435,11.60339 c 6.37,-0.30564 11.4521,4.38229 11.7579,10.75251 c 0.3057,6.36982 -4.3048,11.52983 -10.6752,11.83547 c -6.3697,0.30566 -11.5297,-4.38231 -11.8355,-10.75247 c 0,-0.027 0,-0.0505 0,-0.0774 c -0.2625,-6.33276 4.4096,-11.45374 10.7528,-11.75813 z m -250.2471,9.82423 c 6.3704,-0.3057 11.4523,4.3821 11.7582,10.75248 c 0.3054,6.36969 -4.3051,11.52985 -10.6753,11.83551 c -6.37,0.30564 -11.5297,-4.38267 -11.8355,-10.75251 c -0.3056,-6.37021 4.3824,-11.52983 10.7526,-11.83548 z" id="path57953" inkscape:connector-curvature="0" />
      </g>
      <path inkscape:connector-curvature="0" style="font-size:32.3207283px;font-style:normal;font-variant:normal;font-weight:normal;font-stretch:normal;text-indent:0;text-align:start;text-decoration:none;line-height:120.00000477%;letter-spacing:0px;word-spacing:0px;text-transform:none;direction:ltr;block-progression:tb;writing-mode:lr-tb;text-anchor:start;color:#000000;fill:#434a54;fill-opacity:1;fill-rule:nonzero;stroke:none;marker:none;visibility:visible;font-family:Damion;-inkscape-font-specification:Damion" d="m 589.58343,-1127.4691 c -1.63189,0 -3.1567,0.2582 -4.60164,0.7363 c -1.42432,0.4782 -2.73033,1.1144 -3.92673,1.902 c -1.19641,0.7875 -2.28318,1.7262 -3.25183,2.761 c -0.94801,1.0141 -1.73416,2.0535 -2.39286,3.129 c -0.65868,1.0758 -1.18507,2.1156 -1.53388,3.1905 c -0.32632,0.986 -0.47138,1.9203 -0.49083,2.761 c -0.32142,0.2659 -0.5812,0.5367 -0.92034,0.7976 c -0.94869,0.7252 -1.93403,1.3835 -2.94502,1.9021 c -1.01112,0.5186 -1.95482,0.7343 -2.82237,0.7363 c -0.45449,9e-4 -0.81496,-0.061 -1.10439,-0.184 c -0.26886,-0.1233 -0.42851,-0.4045 -0.42947,-0.859 c -0.001,-0.4958 0.14143,-0.9756 0.42947,-1.534 c 0.2879,-0.5789 0.65169,-1.1801 1.04305,-1.7179 c 0.39127,-0.538 0.75361,-1.0578 1.16573,-1.5339 c 0.4121,-0.476 0.73444,-0.8554 0.98171,-1.1657 c 0.76223,-0.9312 1.46934,-1.9512 2.0247,-3.0678 c 0.57593,-1.1167 0.86164,-2.2579 0.85898,-3.4971 c -0.002,-0.7851 -0.20054,-1.4884 -0.49083,-2.0248 c -0.26974,-0.5365 -0.60798,-0.959 -1.10441,-1.2886 c -0.4759,-0.3501 -1.0366,-0.5929 -1.65659,-0.7363 c -0.62002,-0.1432 -1.28171,-0.1854 -1.96337,-0.184 c -0.92958,0 -1.7518,0.078 -2.51556,0.3069 c -0.76382,0.2287 -1.48726,0.547 -2.14744,0.9204 c -0.63957,0.3731 -1.22264,0.8122 -1.77929,1.2883 c -0.5568,0.4557 -1.12117,0.8737 -1.59522,1.3499 c -0.0429,-0.7022 -0.15994,-1.2843 -0.42949,-1.7793 c -0.24898,-0.4953 -0.56791,-0.8569 -0.98171,-1.1659 c -0.39314,-0.309 -0.89443,-0.5926 -1.41115,-0.7363 c -0.51676,-0.1434 -1.01689,-0.1851 -1.59524,-0.184 c -1.15678,0 -2.20029,0.1585 -3.12912,0.491 c -0.92881,0.3324 -1.81376,0.7703 -2.5769,1.2883 c -0.74258,0.4975 -1.44704,1.0563 -2.08608,1.6566 c -0.63908,0.6005 -1.22269,1.139 -1.77932,1.6566 c 0.2465,-0.6409 0.36928,-1.2421 0.36815,-1.7792 c -0.002,-0.723 -0.19966,-1.2244 -0.61356,-1.5952 c -0.39335,-0.3917 -0.83341,-0.6149 -1.34981,-0.6137 c -0.59905,0 -1.2219,0.2399 -1.84065,0.6749 c -0.59811,0.4352 -1.10265,1.0744 -1.47254,1.9634 c -0.30827,0.7235 -0.69288,1.6044 -1.16573,2.6383 c -0.4523,1.0132 -0.93796,2.094 -1.47253,3.2517 c -0.14421,0.325 -0.28369,0.6552 -0.4295,0.9818 c -1.29856,1.3249 -2.52679,2.5232 -3.68132,3.5586 c -0.49485,0.4347 -0.99776,0.8535 -1.53385,1.2885 c -0.51559,0.4142 -1.03889,0.8341 -1.5339,1.1656 c -0.49508,0.3316 -0.9165,0.5902 -1.34981,0.7978 c -0.41275,0.1868 -0.79456,0.2446 -1.10439,0.2453 c -0.4958,10e-4 -0.83565,-0.1602 -1.04305,-0.5523 c -0.20747,-0.4126 -0.30544,-0.9755 -0.30677,-1.5952 c -0.001,-0.475 0.0409,-0.9951 0.18406,-1.6565 c 0.14311,-0.682 0.32659,-1.444 0.5522,-2.2087 c 0.22557,-0.7648 0.46939,-1.5461 0.73627,-2.3316 c 0.28742,-0.806 0.59197,-1.5465 0.85898,-2.2701 c 0.26689,-0.7442 0.46959,-1.4251 0.6749,-2.0248 c 0.22589,-0.5994 0.38838,-1.0798 0.49086,-1.4725 c 0.0205,-0.083 0.0616,-0.2234 0.0613,-0.3679 c -10e-4,-0.5166 -0.23961,-0.9787 -0.73627,-1.4114 c -0.49672,-0.4325 -1.17844,-0.6151 -1.96336,-0.6135 c -0.24792,5e-4 -0.50808,0.059 -0.85899,0.1841 c -0.33028,0.1038 -0.67218,0.2229 -0.98167,0.3682 c -0.37147,0.166 -0.75365,0.3042 -1.10441,0.4908 c -0.414,-0.3917 -0.87338,-0.7137 -1.41115,-1.0431 c -0.47569,-0.2674 -1.0358,-0.5104 -1.71797,-0.7363 c -0.68216,-0.2256 -1.48397,-0.3699 -2.39283,-0.3681 c -1.75583,0 -3.36173,0.3588 -4.78572,0.9818 c -1.42404,0.6021 -2.69068,1.3987 -3.80402,2.3927 c -1.11336,0.9732 -2.0601,2.072 -2.88369,3.3133 c -0.80291,1.2411 -1.49044,2.4608 -2.0247,3.7427 c -0.51373,1.2612 -0.89979,2.5032 -1.16578,3.6812 c -1.05933,2.3037 -2.50415,4.4141 -4.29486,6.1969 c -1.40513,1.3989 -3.04154,2.5999 -4.7857,3.5585 c 0.21203,-1.4075 0.40507,-2.889 0.67492,-4.2334 c 1.03286,-5.1466 2.81338,-10.1512 5.27652,-14.7867 a 2.356275,2.356275 0 0 0 0.30677,-0.8588 a 2.356275,2.356275 0 0 0 0,-0.061 c 0.0215,-0.036 0.0396,-0.025 0.0614,-0.062 c 0.14396,-0.2687 0.18463,-0.5288 0.18407,-0.7974 c -0.001,-0.5165 -0.30108,-0.9791 -0.79761,-1.3499 c -0.49661,-0.3707 -1.17722,-0.5541 -2.08607,-0.552 c -0.35121,6e-4 -0.69216,0.059 -1.04305,0.1838 c -0.35095,0.1042 -0.69283,0.2231 -0.98168,0.3682 c -0.33018,0.166 -0.63157,0.3656 -0.92032,0.5522 c -0.414,-0.3914 -0.93477,-0.7749 -1.47254,-1.1042 c -0.47571,-0.2677 -1.03579,-0.5107 -1.71795,-0.7363 c -0.68218,-0.2259 -1.484,-0.3702 -2.39285,-0.3682 c -1.59059,0 -3.1754,0.337 -4.84705,1.043 c -1.65106,0.7058 -3.15912,1.702 -4.54027,3.0063 c -1.36063,1.2839 -2.49029,2.9455 -3.37456,4.7858 c -0.75152,1.6015 -1.1358,3.3539 -1.22707,5.2766 c -0.0136,0.2866 -0.062,0.564 -0.0614,0.8589 c 9e-5,0.042 -5e-4,0.081 0,0.1227 c -0.005,0.1258 -1.6e-4,0.098 0,0.2455 c 10e-4,1.2974 0.19913,3.3682 1.47251,4.9698 c 0.0314,0.045 0.0903,0.078 0.12271,0.1226 c 0.21732,0.2572 0.45878,0.5116 0.73627,0.7362 c 0.0431,0.039 0.0787,0.085 0.12273,0.1227 c 0.12087,0.092 0.2355,0.1612 0.36809,0.2455 c 0.20443,0.1493 0.39254,0.3065 0.61357,0.4296 c 0.70311,0.3699 1.44385,0.5538 2.27015,0.552 c 0.0208,0 0.0403,0 0.0613,0 c 0.1092,0.014 0.1935,0.051 0.30677,0.061 c 3.38992,0.3061 6.40302,-1.0396 8.6511,-2.5155 c -0.34485,1.9516 -0.62509,3.887 -0.92034,5.7674 c -3.66182,0.8887 -8.07001,0.8042 -12.51646,2.5156 c -2.2755,0.8756 -4.51059,2.2802 -6.13552,4.4175 c -0.81407,1.0708 -1.49234,2.3168 -1.84063,3.6813 c -0.34958,1.3693 -0.40117,2.8591 -0.0614,4.2948 c 0.33675,1.4232 1.07931,2.6773 2.02472,3.7427 c 0.94318,1.063 2.10182,1.8522 3.37452,2.3929 c 2.55088,1.0839 5.31093,1.0461 7.79212,0.184 c 2.45799,-0.8539 4.55477,-2.4211 6.13552,-4.2948 c 1.57302,-1.8644 2.6802,-4.0019 3.49724,-6.1356 c 0.94094,-2.4571 1.45266,-4.9047 1.90202,-7.3624 c 3.3719,-1.2943 6.51517,-3.0909 9.08056,-5.6449 c 0.77054,-0.767 1.48218,-1.594 2.14745,-2.4542 c 0.23706,0.2652 0.46135,0.5246 0.73624,0.7363 c 0.64143,0.4947 1.32194,0.838 2.02471,1.043 c 0.72347,0.226 1.36492,0.3082 1.90202,0.3068 c 1.05349,0 2.05665,-0.2383 3.06777,-0.7363 c 1.03177,-0.4772 2.01707,-1.0948 2.94504,-1.8405 c 0.94853,-0.7661 1.83461,-1.6049 2.63827,-2.5156 c 0.82424,-0.9314 1.57028,-1.8306 2.2088,-2.6997 c -0.14382,0.3723 -0.24577,0.7932 -0.30677,1.2271 c -0.0611,0.4134 -0.12368,0.8546 -0.12271,1.2885 c 10e-4,0.6611 0.0787,1.2621 0.24542,1.902 c 0.16656,0.6193 0.46598,1.223 0.79761,1.718 c 0.35222,0.4949 0.77134,0.857 1.28846,1.1657 c 0.51705,0.3087 1.11769,0.4924 1.84066,0.4908 c 0.80558,0 1.66885,-0.2192 2.5769,-0.6135 c 0.90806,-0.3738 1.8327,-0.8716 2.76101,-1.4726 c 0.94886,-0.601 1.87428,-1.2383 2.76097,-1.9633 c 0.341,-0.2803 0.5968,-0.5816 0.92031,-0.8589 c -0.0818,0.2281 -0.17393,0.5257 -0.24541,0.7363 c -0.26683,0.7855 -0.36893,1.4075 -0.36812,1.7793 c 10e-4,0.661 0.24009,1.1823 0.6749,1.6564 c 0.43484,0.4743 0.9743,0.7379 1.71795,0.7363 c 0.68166,0 1.2645,-0.2599 1.71793,-0.7363 c 0.45345,-0.4551 0.87741,-1.0354 1.22712,-1.7178 c 0.37032,-0.6826 0.67352,-1.4024 0.98166,-2.2087 c 0.30811,-0.8063 0.67272,-1.5263 1.04305,-2.2089 c 0.41171,-0.662 0.8558,-1.4021 1.3498,-2.2089 c 0.49402,-0.8065 1.03926,-1.6474 1.59524,-2.4541 c 0.57662,-0.8276 1.14059,-1.6271 1.77932,-2.3929 c 0.65935,-0.7658 1.36431,-1.4446 2.08608,-2.0246 c 0.72166,-0.6006 1.48593,-1.0584 2.27012,-1.4112 c 0.78416,-0.3736 1.60728,-0.5504 2.45422,-0.5522 c 0.35116,-9e-4 0.61119,0.1414 0.79761,0.3681 c 0.18636,0.2063 0.30604,0.4671 0.30678,0.7975 c 6.3e-4,0.3099 -0.0608,0.6103 -0.18407,0.9204 c -0.12334,0.2895 -0.285,0.5895 -0.49083,0.9204 c -0.72046,1.1789 -1.52837,2.3595 -2.33148,3.4972 c -0.80322,1.1172 -1.52953,2.217 -2.20879,3.3132 c -0.67935,1.0963 -1.26579,2.1568 -1.71798,3.1905 c -0.43159,1.0337 -0.61567,2.0149 -0.61353,3.0063 c 0.0212,0.2685 0.1003,0.5094 0.24542,0.7363 c 0.16573,0.2268 0.38594,0.4488 0.61353,0.6134 c 0.24821,0.165 0.50826,0.2862 0.79763,0.3682 c 0.2894,0.1027 0.54974,0.1847 0.79764,0.1841 c 0.68164,0 1.26452,-0.2599 1.71793,-0.7363 c 0.45345,-0.4551 0.81601,-1.0354 1.16576,-1.7178 c 0.37031,-0.6826 0.7349,-1.4024 1.04301,-2.2087 c 0.30812,-0.8063 0.61133,-1.5878 0.98169,-2.2703 c 0.41169,-0.6618 0.91714,-1.4021 1.41117,-2.2087 c 0.49401,-0.8067 0.97789,-1.5862 1.53388,-2.3929 c 0.57659,-0.8276 1.20192,-1.6271 1.84066,-2.3929 c 0.65934,-0.7658 1.36433,-1.4446 2.08607,-2.0246 c 0.72168,-0.6006 1.48592,-1.0584 2.27015,-1.4112 c 0.78413,-0.3736 1.54589,-0.5504 2.39285,-0.5522 c 0.35112,-7e-4 0.67253,0.08 0.85898,0.3067 c 0.18631,0.2062 0.24469,0.4671 0.24541,0.7977 c 6.6e-4,0.3099 -0.0608,0.6103 -0.18405,0.9202 c -0.12334,0.2895 -0.28504,0.6509 -0.49085,0.9818 c -0.47343,0.7859 -1.01796,1.545 -1.65658,2.3315 c -0.63873,0.7864 -1.26417,1.6061 -1.84066,2.4541 c -0.57664,0.8276 -1.02067,1.6673 -1.41117,2.577 c -0.39055,0.9098 -0.61582,1.9122 -0.61357,2.945 c 0.003,1.5699 0.48002,2.7147 1.41118,3.4359 c 0.95174,0.7209 2.21402,1.0465 3.74265,1.043 c 1.17741,0 2.32077,-0.2177 3.49727,-0.6749 c 1.19706,-0.4568 2.38274,-1.033 3.55859,-1.7792 c 1.08025,-0.6925 2.14419,-1.5323 3.19049,-2.3929 c 0.33442,0.8187 0.7493,1.5548 1.28844,2.2089 c 0.68342,0.804 1.50298,1.4291 2.45422,1.9018 c 0.97188,0.4732 2.07379,0.739 3.31317,0.7363 c 1.44595,0 2.93116,-0.2177 4.41756,-0.6136 c 1.48647,-0.3749 2.93277,-0.8298 4.29486,-1.4112 c 1.26741,-0.5328 2.43018,-1.0985 3.55863,-1.7178 c 0.066,0.096 0.11313,0.2144 0.18405,0.3067 c 0.60071,0.7632 1.32013,1.4082 2.14744,1.9021 c 0.84798,0.4938 1.74833,0.8793 2.76098,1.1042 c 1.01273,0.246 2.05495,0.3707 3.12912,0.3682 c 1.42529,0 2.85026,-0.1978 4.23349,-0.5522 c 1.40394,-0.3334 2.66989,-0.8296 3.74269,-1.4723 c 1.09334,-0.6636 1.91788,-1.462 2.5769,-2.393 c 0.67958,-0.9515 1.04557,-2.013 1.04304,-3.1905 c -0.002,-0.9295 -0.17829,-1.8522 -0.55219,-2.8223 c -0.35328,-0.97 -0.89091,-1.9556 -1.59524,-2.8837 c -0.68376,-0.9486 -1.52221,-1.8547 -2.51556,-2.6997 c -0.99337,-0.8446 -2.11307,-1.5504 -3.37452,-2.2086 c 0.28869,-0.2279 0.57031,-0.4878 0.85895,-0.7362 c 0.30932,-0.2488 0.5709,-0.4879 0.79764,-0.7363 c 0.24731,-0.2486 0.46951,-0.5288 0.61353,-0.7978 c 0.14404,-0.2687 0.18466,-0.5696 0.18408,-0.8589 c -4.8e-4,-0.2065 -0.0797,-0.3866 -0.24542,-0.6134 c -0.14517,-0.2476 -0.34463,-0.4897 -0.61356,-0.6751 c -0.26902,-0.206 -0.58896,-0.3677 -0.98168,-0.4908 c -0.39279,-0.1231 -0.83402,-0.185 -1.28846,-0.1841 c -0.61973,0 -1.20146,0.1191 -1.7793,0.3682 c -0.5779,0.2285 -1.10033,0.5881 -1.59524,0.9818 c -0.49495,0.3729 -0.97836,0.7715 -1.41118,1.2271 c -0.43278,0.4553 -0.83615,0.9151 -1.16573,1.3497 c -0.12366,0.1447 -0.18459,0.3042 -0.18407,0.5521 c 6.8e-4,0.31 0.0995,0.611 0.30678,0.9204 c 0.20718,0.2886 0.38741,0.4903 0.49083,0.5522 c 0.95151,0.597 1.87073,1.2429 2.82235,1.902 c 0.97224,0.6383 1.83162,1.3235 2.57692,2.086 c 0.7659,0.7421 1.42499,1.567 1.902,2.4544 c 0.47703,0.8872 0.6726,1.8301 0.67493,2.8835 c 0.001,0.5991 -0.10055,1.1202 -0.36815,1.534 c -0.26769,0.4138 -0.62987,0.7736 -1.10439,1.043 c -0.45387,0.2694 -0.97581,0.4269 -1.59525,0.5522 c -0.59876,0.1252 -1.24101,0.1827 -1.90199,0.1841 c -0.64038,0 -1.34274,-0.041 -2.02473,-0.1841 c -0.66135,-0.1637 -1.24104,-0.4077 -1.84064,-0.6748 c -0.36822,-0.1769 -0.71373,-0.3366 -1.04305,-0.5523 c 0.75447,-0.5138 1.46752,-0.9585 1.96337,-1.3499 c 0.59802,-0.4556 0.93997,-0.7553 1.04305,-0.859 c 0.26779,-0.331 0.45002,-0.6109 0.49082,-0.8589 c 0.0407,-0.2686 0.0617,-0.489 0.0614,-0.6749 c -3.2e-4,-0.1239 -0.0197,-0.2644 -0.0614,-0.4296 c -0.0418,-0.1858 -0.12121,-0.3464 -0.24541,-0.4907 c -0.10369,-0.1651 -0.26403,-0.3266 -0.42949,-0.4295 c -0.16555,-0.1236 -0.3657,-0.1846 -0.61356,-0.1841 c -0.12397,4e-4 -0.26428,0.04 -0.42949,0.061 c -0.14457,0.021 -0.30522,0.06 -0.49083,0.1841 c -0.18579,0.083 -0.54743,0.3431 -1.10441,0.6748 c -0.53638,0.3318 -1.26079,0.7097 -2.08607,1.1658 c -0.43819,0.2486 -0.97311,0.5306 -1.47252,0.7976 c -0.37684,0.062 -0.72224,0.2132 -1.04304,0.5522 c -0.0127,0.013 0.0123,0.049 0,0.061 c -0.062,0.032 -0.12129,0.029 -0.18408,0.061 c -1.01111,0.4981 -2.05592,0.9138 -3.12909,1.35 c -1.05256,0.4362 -2.15764,0.8128 -3.25183,1.1044 c -1.07357,0.2708 -2.0562,0.4273 -3.00642,0.4294 c -0.88822,0 -1.60963,-0.1615 -2.14742,-0.4908 c -0.53782,-0.3501 -0.87711,-0.8124 -0.98168,-1.4112 c 2.80705,-1.0389 5.13755,-2.1128 6.99448,-3.129 c 1.87752,-1.0369 3.4269,-2.0332 4.5403,-3.0065 c 1.11326,-0.9939 1.87908,-1.9325 2.33149,-2.8838 c 0.45236,-0.9511 0.67676,-1.8933 0.6749,-2.7609 c -0.003,-1.4664 -0.43978,-2.6116 -1.28844,-3.4359 c -0.84874,-0.8243 -2.15091,-1.2307 -3.86538,-1.2271 z m -1.65659,4.2334 c 0.10328,-2e-4 0.22413,3e-4 0.30675,0 c 0.0826,0 0.14211,0.041 0.24544,0.061 c 0.24797,0.041 0.48858,0.1828 0.6749,0.3682 c 0.20693,0.1855 0.30611,0.4264 0.30679,0.7363 c 7.9e-4,0.3718 -0.20217,0.7713 -0.55221,1.2885 c -0.35009,0.4964 -0.97372,1.0762 -1.90199,1.6565 c -0.20634,0.1244 -0.52742,0.3227 -1.04305,0.675 c -0.49501,0.3522 -1.09859,0.7919 -1.7793,1.2271 c -0.68075,0.4352 -1.42485,0.8729 -2.2088,1.3498 c -0.76326,0.4767 -1.48661,0.9152 -2.20878,1.2884 c 0.12307,-0.3927 0.26486,-0.8937 0.49086,-1.4725 c 0.24658,-0.5789 0.57049,-1.1589 0.92031,-1.7793 c 0.34978,-0.641 0.73333,-1.322 1.16575,-1.9634 c 0.45305,-0.6412 0.97722,-1.2209 1.53388,-1.7179 c 0.57727,-0.5176 1.15964,-0.9158 1.84064,-1.2271 c 0.681,-0.3114 1.42384,-0.4892 2.20881,-0.491 z m -99.39542,1.4726 c 0.30985,-6e-4 0.65026,0.061 1.04305,0.1841 c 0.41331,0.1023 0.81407,0.2645 1.16576,0.4908 c 0.37227,0.2266 0.67164,0.5084 0.92031,0.8589 c 0.24855,0.3302 0.36713,0.7729 0.36812,1.2273 c 5.7e-4,0.2686 -0.14149,0.6688 -0.42948,1.2271 c -0.28804,0.5378 -0.67147,1.158 -1.16574,1.8405 c -0.47366,0.6828 -0.99776,1.3619 -1.59524,2.0862 c -0.59755,0.7036 -1.26294,1.3628 -1.902,1.9634 c -0.61848,0.5798 -1.18112,1.0175 -1.77932,1.4112 c -0.57761,0.3731 -1.1001,0.5513 -1.53388,0.5522 c -0.59903,0 -1.05955,-0.101 -1.41114,-0.307 c -0.33102,-0.2263 -0.61102,-0.4673 -0.79764,-0.7975 c -0.16598,-0.3302 -0.30535,-0.6715 -0.36812,-1.043 c -0.0422,-0.3925 -0.0606,-0.7739 -0.0614,-1.1044 c -0.002,-1.0948 0.20265,-2.1567 0.61356,-3.1904 c 0.41088,-1.0338 1.01733,-1.9132 1.71793,-2.6997 c 0.70056,-0.8072 1.48496,-1.4863 2.39286,-1.9634 c 0.9078,-0.4977 1.8515,-0.7342 2.82234,-0.7363 z m 28.28473,0.1227 c 0.33051,-7e-4 0.67033,0.061 1.10442,0.184 c 0.45463,0.1023 0.89548,0.2646 1.28845,0.491 c 0.39294,0.2264 0.71241,0.4678 0.98169,0.7975 c 0.26916,0.3095 0.42862,0.6508 0.42947,1.0431 c 5.7e-4,0.2685 -0.18226,0.7093 -0.49082,1.2885 c -0.30861,0.579 -0.67159,1.2392 -1.16576,1.9634 c -0.4942,0.7241 -1.03857,1.4432 -1.65659,2.2088 c -0.6181,0.7449 -1.30373,1.4443 -1.96337,2.086 c -0.63901,0.6211 -1.22188,1.1808 -1.84066,1.5952 c -0.59822,0.3939 -1.1408,0.5514 -1.59524,0.5523 c -0.57837,0 -1.05947,-0.1211 -1.41117,-0.3682 c -0.33101,-0.2471 -0.54953,-0.5488 -0.73626,-0.9204 c -0.1867,-0.3712 -0.36657,-0.7319 -0.42948,-1.1656 c -0.0423,-0.4545 -0.0605,-0.9366 -0.0613,-1.35 c -0.002,-1.012 0.20255,-2.0139 0.61354,-3.0063 c 0.41094,-1.0129 1.01734,-1.8924 1.71795,-2.6997 c 0.70055,-0.807 1.48502,-1.4655 2.39283,-1.9634 c 0.90783,-0.4975 1.85145,-0.734 2.82233,-0.7362 z m -28.59151,25.2784 c -0.31844,1.3751 -0.49312,2.835 -0.98168,4.1109 c -0.68247,1.7822 -1.5688,3.384 -2.69962,4.7242 c -1.12311,1.3312 -2.54659,2.423 -4.04946,2.9452 c -1.47967,0.514 -3.10925,0.4943 -4.41756,-0.062 c -0.65689,-0.2791 -1.26961,-0.7218 -1.71795,-1.2271 c -0.44609,-0.5027 -0.77429,-1.1007 -0.92032,-1.7178 c -0.14766,-0.6241 -0.11271,-1.3432 0.0614,-2.0249 c 0.17527,-0.6865 0.51466,-1.3489 0.98166,-1.9632 c 0.93728,-1.2328 2.37395,-2.239 4.04944,-2.8838 c 2.68792,-1.0344 6.21353,-1.2969 9.69413,-1.902 z" id="path53057" />
    </g>
  </g>
</svg>
