
<svg xmlns:dc="http://purl.org/dc/elements/1.1/" xmlns:cc="http://creativecommons.org/ns#" xmlns:rdf="http://www.w3.org/1999/02/22-rdf-syntax-ns#" xmlns:svg="http://www.w3.org/2000/svg" xmlns="http://www.w3.org/2000/svg" version="1.1" width="361.8" height="170.6"><style>.style0{stroke:  #f6f7fb;}.style1{color: #000000;fill: none;stroke:  #f6f7fb;stroke-width: 22.39024734;stroke-linecap: round;stroke-linejoin:  round;marker: none;visibility:  visible;display:  inline;overflow:  visible;enable-background:  accumulate;}</style><defs/><metadata><rdf:RDF><cc:Work rdf:about=""><dc:format>image/svg+xml</dc:format><dc:type rdf:resource="http://purl.org/dc/dcmitype/StillImage"/><dc:title/></cc:Work></rdf:RDF></metadata><g class="style0"><path d="M46.5 147.4 C42.2 114.5 28.4 14.2 75.4 11.2 C91.3 12.4 100.2 23.3 99.3 37.9 C96.6 63.5 69 77 50.6 76.3 C32.7 74.2 18.5 64.3 11.3 49.2 M124.2 119.5 C124.8 131.3 115.6 141.3 103.8 141.9 C92 142.5 82 133.4 81.4 121.6 C80.9 109.8 90 99.7 101.8 99.2 C113.6 98.6 123.6 107.7 124.2 119.5 zM196.4 128.9 C200.1 122 199.8 113.7 195.6 107.1 C176.3 83.2 148.2 111 159.5 130.4 C159.5 130.4 151.4 119.2 156.1 94.6 M233 103.8 C219.2 145.1 286 133 270.1 102.1 C270.1 102.1 278.3 113.6 273.6 138.2 M303.1 159 C308.1 144 308.7 128.3 307.9 112.6 C307.2 100.9 316.3 90.8 328.1 90.3 C339.9 89.7 350 98.8 350.5 110.6 C351.1 122.4 342 132.5 330.2 133 C322.9 133 308 128.9 308 112.7 " class="style1"/></g></svg>