<?xml version="1.0" encoding="UTF-8" standalone="no"?>
<!-- Created with Inkscape (http://www.inkscape.org/) -->

<svg xmlns:dc="http://purl.org/dc/elements/1.1/" xmlns:cc="http://creativecommons.org/ns#" xmlns:rdf="http://www.w3.org/1999/02/22-rdf-syntax-ns#" xmlns:svg="http://www.w3.org/2000/svg" xmlns="http://www.w3.org/2000/svg" xmlns:sodipodi="http://sodipodi.sourceforge.net/DTD/sodipodi-0.dtd" xmlns:inkscape="http://www.inkscape.org/namespaces/inkscape" version="1.1" width="198" height="58.400002" id="svg2" inkscape:version="0.48.5 r10040" sodipodi:docname="PonupGames.svg" inkscape:export-filename="/home/pablolizardo/sources/site/images/PonupGames.png" inkscape:export-xdpi="90" inkscape:export-ydpi="90">
  <sodipodi:namedview pagecolor="#ffffff" bordercolor="#666666" borderopacity="1" objecttolerance="10" gridtolerance="10" guidetolerance="10" inkscape:pageopacity="0" inkscape:pageshadow="2" inkscape:window-width="640" inkscape:window-height="480" id="namedview16086" showgrid="false" inkscape:zoom="2.0353535" inkscape:cx="88.928855" inkscape:cy="30.498636" inkscape:window-x="0" inkscape:window-y="27" inkscape:window-maximized="0" inkscape:current-layer="svg2" />
  <style id="style4" />
  <defs id="defs6" />
  <metadata id="metadata8">
    <rdf:RDF>
      <cc:Work rdf:about="">
        <dc:format>image/svg+xml</dc:format>
        <dc:type rdf:resource="http://purl.org/dc/dcmitype/StillImage" />
        <dc:title></dc:title>
      </cc:Work>
    </rdf:RDF>
  </metadata>
  <path inkscape:connector-curvature="0" style="font-size:32.3207283px;font-style:normal;font-variant:normal;font-weight:normal;font-stretch:normal;text-indent:0;text-align:start;text-decoration:none;line-height:120.00000477%;letter-spacing:0px;word-spacing:0px;text-transform:none;direction:ltr;block-progression:tb;writing-mode:lr-tb;text-anchor:start;color:#000000;fill:#434a54;fill-opacity:1;fill-rule:nonzero;stroke:none;marker:none;visibility:visible;font-family:Damion;-inkscape-font-specification:Damion" d="M 155.52499,1.2045041 C 153.61858,1.2087097 151.83727,1.506139 150.14925,2.0646668 C 148.48532,2.6233118 146.95962,3.3665353 145.56196,4.2866279 C 144.16427,5.2066044 142.89469,6.3032157 141.76309,7.5120933 C 140.6556,8.6967884 139.7372,9.9110395 138.96769,11.167464 C 138.1982,12.424238 137.58327,13.638958 137.17578,14.894681 C 136.79456,16.046549 136.6251,17.13802 136.60238,18.120145 C 136.22688,18.430777 135.9234,18.747131 135.52721,19.051921 C 134.41893,19.899117 133.26783,20.668158 132.08677,21.273999 C 130.90556,21.879839 129.8031,22.131825 128.78961,22.134162 C 128.25867,22.135213 127.83755,22.063134 127.49944,21.919208 C 127.18535,21.775166 126.99885,21.446663 126.99773,20.915705 C 126.99644,20.3365 127.16294,19.775986 127.49944,19.12365 C 127.83577,18.447365 128.26076,17.745029 128.71796,17.116759 C 129.17505,16.488254 129.59834,15.881012 130.07979,15.324821 C 130.56121,14.768746 130.93778,14.325522 131.22664,13.963023 C 132.1171,12.875173 132.94316,11.683585 133.59195,10.379146 C 134.26477,9.074592 134.59854,7.7414148 134.59543,6.2937527 C 134.5934,5.3765806 134.36116,4.5549685 134.02203,3.9283339 C 133.70691,3.3015822 133.31178,2.8080075 132.73183,2.4229608 C 132.17587,2.0139658 131.52086,1.7303212 130.79656,1.5627981 C 130.07225,1.3955081 129.29924,1.3462093 128.50291,1.3478447 C 127.41696,1.3501817 126.45641,1.4387328 125.56418,1.7063729 C 124.67186,1.9735455 123.82672,2.345391 123.05548,2.7816061 C 122.30832,3.2174698 121.62716,3.730437 120.97687,4.2866279 C 120.32641,4.8189875 119.6671,5.3073048 119.1133,5.8636127 C 119.06322,5.0432858 118.92646,4.3632629 118.61156,3.7849923 C 118.32069,3.2063714 117.94811,2.783942 117.46471,2.4229608 C 117.00543,2.0619795 116.41981,1.7306715 115.81617,1.5627981 C 115.21248,1.3952749 114.62822,1.3465596 113.95257,1.3478447 C 112.6012,1.3509994 111.38214,1.5330088 110.29706,1.9214423 C 109.212,2.3097597 108.17819,2.8213247 107.28667,3.4264651 C 106.41917,4.0076562 105.5962,4.660459 104.84966,5.361744 C 104.10307,6.0632621 103.42129,6.6923508 102.77102,7.2970228 C 103.05898,6.5483086 103.20242,5.8459728 103.2011,5.2185195 C 103.19926,4.3738939 102.96785,3.788147 102.48432,3.3549695 C 102.0248,2.8973763 101.51071,2.6366291 100.90744,2.6380313 C 100.20761,2.6395495 99.479993,2.918288 98.757149,3.4264651 C 98.058422,3.9348754 97.46901,4.681604 97.036898,5.720155 C 96.676762,6.5653651 96.227456,7.5944532 95.675064,8.8022789 C 95.146673,9.9859235 94.579316,11.248539 93.954813,12.600991 C 93.786352,12.980663 93.623404,13.366411 93.453067,13.747952 C 91.936058,15.295732 90.501211,16.695614 89.152456,17.905193 C 88.574361,18.41302 87.986857,18.902272 87.360582,19.410449 C 86.758257,19.894327 86.146927,20.384864 85.568646,20.77213 C 84.990282,21.159513 84.497967,21.461615 83.991765,21.704139 C 83.509576,21.922363 83.063535,21.989886 82.701585,21.990704 C 82.122382,21.991872 81.725361,21.803554 81.483069,21.345494 C 81.240705,20.863485 81.126249,20.205892 81.124694,19.481944 C 81.123503,18.927038 81.17244,18.319445 81.339719,17.546782 C 81.506906,16.750053 81.721246,15.859867 81.984815,14.966527 C 82.248331,14.073069 82.533165,13.160337 82.844945,12.242697 C 83.180717,11.301108 83.53649,10.436039 83.848426,9.5907125 C 84.160206,8.7213213 84.397005,7.9258773 84.636861,7.225294 C 84.90075,6.5250609 85.090571,5.9638468 85.210291,5.5050846 C 85.23419,5.4084726 85.282257,5.2441042 85.281956,5.075296 C 85.280598,4.471791 85.002044,3.931955 84.421836,3.4264651 C 83.841555,2.9212085 83.04515,2.7078905 82.128185,2.7097601 C 81.838563,2.7103436 81.534639,2.779152 81.124694,2.9248296 C 80.738856,3.0460914 80.339441,3.1852265 79.977885,3.3549695 C 79.543928,3.548895 79.097452,3.710343 78.687694,3.9283339 C 78.204043,3.4707407 77.667383,3.0945726 77.039149,2.7097601 C 76.48344,2.3973771 75.829101,2.1134982 75.032178,1.8495974 C 74.235265,1.5860458 73.298568,1.4174708 72.236823,1.4195735 C 70.18562,1.4241294 68.309562,1.8387321 66.646031,2.5665356 C 64.982428,3.2699233 63.502707,4.2005298 62.20208,5.361744 C 60.901433,6.4986595 59.795425,7.7823035 58.833285,9.2324188 C 57.895313,10.6823 57.09212,12.107183 56.46799,13.604729 C 55.867832,15.078092 55.416827,16.529026 55.106093,17.905193 C 53.86856,20.596429 52.180686,23.061848 50.088743,25.144557 C 48.447235,26.778785 46.535536,28.181822 44.497971,29.301681 C 44.74567,27.657406 44.971184,25.926682 45.286429,24.356123 C 46.493035,18.343744 48.573081,12.497252 51.450588,7.0819534 A 2.7526558,2.7526558 0 0 0 51.808962,6.0786832 A 2.7526558,2.7526558 0 0 0 51.808962,6.0069533 C 51.834115,5.965248 51.855267,5.9773973 51.880648,5.9349913 C 52.048829,5.62109 52.096346,5.3172342 52.095683,5.00345 C 52.094377,4.4000621 51.743962,3.8596427 51.163898,3.4264651 C 50.583752,2.9934048 49.788643,2.779152 48.726908,2.7816061 C 48.316611,2.7823067 47.918306,2.8506476 47.508392,2.9963252 C 47.098396,3.1180535 46.699012,3.2569553 46.361572,3.4264651 C 45.975845,3.6203896 45.623753,3.8535675 45.286429,4.0715584 C 44.802784,3.6143155 44.194409,3.1663014 43.566173,2.7816061 C 43.010437,2.4688717 42.356139,2.1849939 41.559224,1.9214423 C 40.762284,1.6575415 39.82558,1.4889664 38.76384,1.4913024 C 36.905675,1.4952748 35.054263,1.8849944 33.101402,2.7097601 C 31.172595,3.5342916 29.410844,4.6980759 27.797353,6.2217896 C 26.207832,7.7216721 24.888137,9.6627925 23.855112,11.812673 C 22.977168,13.683584 22.528243,15.730778 22.42162,17.976922 C 22.405673,18.311735 22.349178,18.6358 22.349925,18.980309 C 22.350031,19.029258 22.349342,19.075052 22.349925,19.12365 C 22.344434,19.270612 22.349739,19.237551 22.349925,19.410449 C 22.351245,20.926102 22.582554,23.345259 24.070146,25.216286 C 24.106876,25.268972 24.17566,25.307757 24.213499,25.35951 C 24.467377,25.659977 24.749457,25.957173 25.073627,26.219556 C 25.123966,26.265584 25.16552,26.319089 25.217003,26.362897 C 25.358207,26.470023 25.49212,26.551215 25.647015,26.649696 C 25.885834,26.824112 26.105589,27.007756 26.363802,27.151564 C 27.185192,27.583691 28.050542,27.798527 29.015844,27.796425 C 29.04019,27.799812 29.06297,27.793504 29.087503,27.796425 C 29.215073,27.812545 29.313555,27.856237 29.445879,27.868153 C 33.406063,28.225747 36.926037,26.653668 39.552298,24.929487 C 39.149435,27.209391 38.822053,29.470372 38.477134,31.667099 C 34.19931,32.705299 29.049559,32.606584 23.855112,34.605883 C 21.196818,35.628778 18.585735,37.269665 16.687453,39.76651 C 15.736437,41.017443 14.944066,42.47305 14.537186,44.06709 C 14.128798,45.666739 14.068529,47.407159 14.465503,49.084377 C 14.858903,50.746992 15.726378,52.212061 16.830829,53.456687 C 17.932674,54.698509 19.286225,55.620471 20.773022,56.252129 C 23.75302,57.518366 26.977376,57.474207 29.875961,56.467082 C 32.747442,55.469536 35.19695,53.638696 37.043619,51.449795 C 38.881258,49.27176 40.174692,46.774682 41.129177,44.282043 C 42.228405,41.411601 42.826209,38.552257 43.351162,35.681115 C 47.290289,34.169083 50.962336,32.070253 53.959284,29.08661 C 54.859449,28.190583 55.6908,27.224462 56.46799,26.219556 C 56.744928,26.529369 57.006941,26.832406 57.328079,27.07972 C 58.077412,27.657639 58.872397,28.05869 59.693395,28.298176 C 60.53857,28.562195 61.287924,28.658223 61.91538,28.656587 C 63.146084,28.6539 64.318005,28.378199 65.499222,27.796425 C 66.704555,27.238948 67.855603,26.517454 68.939682,25.646308 C 70.047773,24.751333 71.082914,23.771427 72.021767,22.707526 C 72.984664,21.619442 73.856205,20.568976 74.602149,19.553673 C 74.434133,19.988603 74.315034,20.480308 74.243764,20.9872 C 74.172389,21.470143 74.099284,21.985564 74.100414,22.492456 C 74.102051,23.264768 74.192391,23.966871 74.387124,24.714417 C 74.581701,25.437898 74.931485,26.143154 75.318909,26.721425 C 75.730376,27.299579 76.220007,27.722593 76.824114,28.083223 C 77.428149,28.443854 78.129829,28.658456 78.974415,28.656587 C 79.915516,28.654718 80.924013,28.400513 81.984815,27.939882 C 83.045627,27.5032 84.125819,26.921658 85.210291,26.219556 C 86.318766,25.517454 87.39987,24.772944 88.435716,23.925983 C 88.834085,23.59853 89.13292,23.246545 89.510851,22.922596 C 89.415288,23.189068 89.307662,23.536731 89.224151,23.782758 C 88.912434,24.700398 88.793159,25.427033 88.794112,25.861379 C 88.79577,26.633575 89.074583,27.24257 89.582547,27.796425 C 90.090531,28.350513 90.720744,28.658456 91.589487,28.656587 C 92.385819,28.655068 93.066711,28.352966 93.596417,27.796425 C 94.126144,27.264765 94.621433,26.586845 95.029968,25.78965 C 95.462588,24.992221 95.816786,24.151333 96.176768,23.209395 C 96.536707,22.267456 96.962653,21.426335 97.395283,20.628906 C 97.87625,19.855542 98.395043,18.990939 98.972153,18.048417 C 99.549273,17.106244 100.18623,16.123886 100.83574,15.181479 C 101.50937,14.214658 102.16821,13.280663 102.91439,12.386038 C 103.68466,11.491412 104.50822,10.698422 105.3514,10.020852 C 106.19446,9.3192175 107.0873,8.7844048 108.00341,8.372256 C 108.91948,7.9358077 109.88107,7.7292655 110.87049,7.7271627 C 111.28072,7.7261119 111.58449,7.8923499 111.80227,8.1571855 C 112.01998,8.39819 112.1598,8.7028636 112.16066,9.088844 C 112.16139,9.4508775 112.0896,9.8018105 111.94562,10.164077 C 111.80154,10.502278 111.61268,10.852744 111.37222,11.23931 C 110.53057,12.616528 109.58674,13.995732 108.64853,15.324821 C 107.7102,16.62996 106.86171,17.914772 106.06817,19.195379 C 105.27455,20.476102 104.58945,21.715003 104.06119,22.922596 C 103.557,24.130188 103.34195,25.27645 103.34445,26.434626 C 103.36925,26.748294 103.46162,27.029719 103.63115,27.294789 C 103.82476,27.559742 104.08202,27.819088 104.34789,28.011377 C 104.63786,28.204134 104.94165,28.345723 105.27971,28.441517 C 105.61779,28.561494 105.92192,28.657288 106.21153,28.656587 C 107.00783,28.655068 107.68877,28.352966 108.21845,27.796425 C 108.74818,27.264765 109.17173,26.586845 109.58032,25.78965 C 110.01293,24.992221 110.43885,24.151333 110.79879,23.209395 C 111.15874,22.267456 111.51296,21.354489 111.94562,20.557177 C 112.42657,19.784047 113.01705,18.91921 113.59419,17.976922 C 114.1713,17.034515 114.73658,16.123886 115.3861,15.181479 C 116.05969,14.214658 116.79021,13.280663 117.5364,12.386038 C 118.30665,11.491412 119.13024,10.698422 119.97339,10.020852 C 120.81648,9.3192175 121.70928,8.7844048 122.62544,8.372256 C 123.54147,7.9358077 124.43138,7.7292655 125.42082,7.7271627 C 125.83101,7.726345 126.20648,7.820621 126.4243,8.0854567 C 126.64195,8.3263451 126.71016,8.6311348 126.711,9.0173494 C 126.71176,9.3793815 126.63994,9.7303165 126.49598,10.092348 C 126.3519,10.430549 126.163,10.852744 125.92256,11.23931 C 125.36948,12.157417 124.73335,13.044215 123.98731,13.963023 C 123.24112,14.881713 122.51048,15.839306 121.83701,16.82996 C 121.16336,17.796782 120.64464,18.777739 120.18844,19.840472 C 119.73219,20.903322 119.46903,22.074349 119.47165,23.28089 C 119.47559,25.114884 120.03243,26.452266 121.12022,27.294789 C 122.23207,28.136961 123.7067,28.517335 125.49248,28.513246 C 126.86795,28.510325 128.20366,28.258924 129.57807,27.724812 C 130.97651,27.191168 132.36165,26.518037 133.7353,25.646308 C 134.99728,24.837314 136.24019,23.85624 137.46251,22.850867 C 137.85319,23.807291 138.33785,24.667221 138.96769,25.431356 C 139.76608,26.370608 140.72351,27.100864 141.83476,27.653083 C 142.97014,28.205887 144.25742,28.5164 145.7053,28.513246 C 147.39449,28.509625 149.12955,28.258924 150.86599,27.796425 C 152.60252,27.358457 154.29212,26.827032 155.88335,26.147827 C 157.36396,25.525398 158.72234,24.864534 160.04062,24.141052 C 160.11774,24.25367 160.17279,24.39152 160.25563,24.499347 C 160.9574,25.390935 161.79784,26.144439 162.76432,26.721425 C 163.75495,27.298294 164.80677,27.748644 165.98976,28.011377 C 167.17286,28.298761 168.39041,28.444437 169.64527,28.441517 C 171.31034,28.438129 172.97502,28.210443 174.59094,27.796425 C 176.23106,27.406938 177.70997,26.827266 178.96323,26.076448 C 180.2405,25.301216 181.20375,24.368506 181.97363,23.28089 C 182.76753,22.169326 183.19509,20.929256 183.19214,19.553673 C 183.18977,18.467809 182.98385,17.389889 182.54705,16.256595 C 182.13434,15.123419 181.50627,13.972018 180.68345,12.887789 C 179.88467,11.779613 178.90518,10.721085 177.74472,9.7339375 C 176.58424,8.7472552 175.27618,7.9227236 173.80253,7.1537983 C 174.13979,6.8875604 174.46878,6.5839399 174.80597,6.2937527 C 175.16733,6.0030991 175.47291,5.7237761 175.7378,5.4335899 C 176.0267,5.1431696 176.28628,4.8158328 176.45454,4.5015812 C 176.6228,4.1876789 176.67026,3.8361607 176.66958,3.498194 C 176.66902,3.2569553 176.57649,3.0465588 176.38287,2.7816061 C 176.21328,2.4923537 175.98028,2.2095267 175.6661,1.992938 C 175.35182,1.7522838 174.97806,1.5633826 174.51928,1.4195735 C 174.06041,1.2757655 173.54495,1.2034522 173.01407,1.2045041 C 172.29008,1.2061395 171.6105,1.3436391 170.93545,1.634644 C 170.26033,1.9015825 169.65002,2.3216759 169.07185,2.7816061 C 168.49364,3.2172356 167.92891,3.6828897 167.42327,4.2151322 C 166.91769,4.7470245 166.44647,5.2841742 166.06145,5.7918839 C 165.91698,5.9609253 165.8458,6.1472574 165.84641,6.4368601 C 165.8472,6.7990093 165.96268,7.1506446 166.2048,7.5120933 C 166.44683,7.8492423 166.65738,8.0848732 166.7782,8.1571855 C 167.88977,8.8546153 168.96363,9.6091715 170.07533,10.379146 C 171.21112,11.124824 172.21507,11.92529 173.08575,12.816061 C 173.9805,13.682999 174.75046,14.646667 175.30772,15.683348 C 175.86499,16.719796 176.09346,17.821314 176.09618,19.051921 C 176.09766,19.751804 175.97872,20.360565 175.6661,20.843975 C 175.35338,21.327386 174.93027,21.747713 174.37592,22.062433 C 173.84571,22.377152 173.23596,22.561147 172.51232,22.707526 C 171.81284,22.853787 171.06254,22.92096 170.29037,22.922596 C 169.54227,22.924115 168.72175,22.874815 167.92503,22.707526 C 167.15243,22.516288 166.47522,22.231241 165.77475,21.919208 C 165.34459,21.71255 164.94095,21.525985 164.55623,21.273999 C 165.43763,20.673766 166.27063,20.154256 166.8499,19.697014 C 167.54851,19.164772 167.94799,18.814655 168.06841,18.69351 C 168.38125,18.306828 168.59413,17.979842 168.64179,17.690123 C 168.68934,17.376338 168.71392,17.118862 168.71349,16.901689 C 168.71311,16.756946 168.69045,16.592811 168.64179,16.39982 C 168.59301,16.182764 168.50019,15.995148 168.3551,15.826573 C 168.23397,15.633699 168.04666,15.445031 167.85337,15.324821 C 167.65996,15.180428 167.42615,15.109167 167.13658,15.109751 C 166.99176,15.110218 166.82785,15.15683 166.63485,15.181479 C 166.46595,15.206012 166.27828,15.251105 166.06145,15.39655 C 165.8444,15.493629 165.42193,15.797367 164.77125,16.184867 C 164.14463,16.572483 163.29837,17.013955 162.33425,17.546782 C 161.82235,17.837202 161.19744,18.166641 160.61402,18.478557 C 160.17379,18.551103 159.77028,18.727622 159.39551,19.12365 C 159.38072,19.138369 159.40984,19.180309 159.39551,19.195379 C 159.32311,19.232645 159.25382,19.229491 159.18047,19.266874 C 157.99927,19.848766 156.77869,20.334397 155.52499,20.843975 C 154.29537,21.353555 153.00439,21.793508 151.72613,22.134162 C 150.47196,22.450516 149.32403,22.633343 148.21396,22.635797 C 147.17632,22.638133 146.33355,22.447129 145.7053,22.062433 C 145.077,21.653438 144.68063,21.113368 144.55848,20.413836 C 147.83773,19.200169 150.56028,17.945613 152.72959,16.758464 C 154.92295,15.547134 156.73297,14.383232 158.03367,13.246201 C 159.33421,12.085103 160.22885,10.988609 160.75737,9.8772775 C 161.28583,8.7661813 161.54798,7.6654804 161.5458,6.6519295 C 161.54209,4.9388472 161.03205,3.6009972 160.04062,2.6380313 C 159.0491,1.6750643 157.52788,1.2002985 155.52499,1.2045041 z M 153.58973,6.1500607 C 153.71038,6.1498276 153.85156,6.1504121 153.94808,6.1500607 C 154.0446,6.1500607 154.1141,6.1981916 154.2348,6.2217896 C 154.52449,6.2695701 154.80558,6.4353418 155.02324,6.6519295 C 155.26498,6.8686354 155.38084,7.1500601 155.38164,7.5120933 C 155.38257,7.9464388 155.14547,8.4131437 154.73654,9.0173494 C 154.32756,9.5972555 153.59901,10.27459 152.51458,10.952511 C 152.27353,11.097838 151.89844,11.329496 151.29607,11.741062 C 150.71779,12.15251 150.01267,12.666177 149.21745,13.174589 C 148.42219,13.682999 147.5529,14.194331 146.63708,14.751457 C 145.74542,15.308349 144.90038,15.820615 144.05673,16.256595 C 144.2005,15.797834 144.36615,15.212555 144.63016,14.536387 C 144.91823,13.860102 145.29663,13.182533 145.7053,12.457767 C 146.11391,11.708935 146.56199,10.913375 147.06715,10.164077 C 147.59641,9.4150125 148.20876,8.7377932 148.85907,8.1571855 C 149.53344,7.5525136 150.21378,7.0873269 151.00935,6.7236594 C 151.8049,6.3598737 152.6727,6.1521635 153.58973,6.1500607 z M 37.473666,7.8703872 C 37.83564,7.8696867 38.233315,7.9416487 38.692181,8.0854567 C 39.17502,8.2049661 39.643196,8.3944518 40.054049,8.6588212 C 40.488944,8.9235408 40.838675,9.2527461 41.129177,9.6622085 C 41.419539,10.047955 41.558067,10.565128 41.559224,11.095968 C 41.559889,11.409754 41.393932,11.877276 41.057495,12.529495 C 40.721,13.157767 40.273067,13.882298 39.69565,14.679611 C 39.142309,15.477274 38.530043,16.270614 37.832053,17.116759 C 37.133981,17.938721 36.356657,18.708814 35.610092,19.410449 C 34.887569,20.087785 34.23028,20.599117 33.531449,21.059046 C 32.856671,21.494909 32.246285,21.703087 31.739534,21.704139 C 31.039734,21.705657 30.501742,21.586148 30.091007,21.345494 C 29.704301,21.081125 29.377199,20.799584 29.159185,20.413836 C 28.965283,20.028088 28.802468,19.629374 28.729138,19.195379 C 28.679851,18.736851 28.658298,18.291291 28.657445,17.905193 C 28.654699,16.626222 28.894186,15.385686 29.37422,14.178092 C 29.85422,12.970384 30.562689,11.943047 31.381146,11.024239 C 32.199557,10.081249 33.115911,9.2879099 34.176542,8.7305501 C 35.237055,8.1491247 36.339507,7.8728403 37.473666,7.8703872 z M 70.516552,8.0137278 C 70.90266,8.0129101 71.299649,8.0852235 71.806763,8.2286812 C 72.337869,8.3481906 72.85288,8.5377935 73.311958,8.8022789 C 73.770995,9.0667653 74.14421,9.3487735 74.458788,9.7339375 C 74.773232,10.095502 74.959518,10.494217 74.960513,10.952511 C 74.961176,11.266179 74.747592,11.781132 74.387124,12.457767 C 74.026593,13.134169 73.602555,13.905429 73.025248,14.751457 C 72.44792,15.597367 71.811966,16.437437 71.089982,17.331829 C 70.367906,18.202038 69.566941,19.019094 68.796332,19.768743 C 68.049828,20.494327 67.368906,21.148181 66.646031,21.632293 C 65.947169,22.092456 65.313319,22.276452 64.782431,22.277502 C 64.106763,22.278788 63.544732,22.136031 63.133865,21.847363 C 62.747177,21.558695 62.4919,21.206242 62.273755,20.77213 C 62.055642,20.338485 61.845519,19.917107 61.77202,19.410449 C 61.722648,18.879491 61.701382,18.316291 61.700376,17.833347 C 61.697785,16.651105 61.936999,15.480662 62.417126,14.321317 C 62.897201,13.138023 63.605608,12.110571 64.424077,11.167464 C 65.242473,10.224707 66.158909,9.4554335 67.219441,8.8737746 C 68.279984,8.2925834 69.382344,8.016298 70.516552,8.0137278 z M 37.115278,37.544549 C 36.743268,39.150972 36.539203,40.856462 35.968456,42.346998 C 35.171178,44.429006 34.135748,46.300267 32.814697,47.86592 C 31.502654,49.421058 29.839711,50.696525 28.084022,51.306572 C 26.355437,51.907038 24.451723,51.884025 22.923325,51.234726 C 22.15593,50.908674 21.440136,50.391502 20.916375,49.801199 C 20.395242,49.213933 20.011831,48.515335 19.841235,47.794424 C 19.668735,47.065336 19.709565,46.225267 19.912917,45.428888 C 20.117672,44.626903 20.514156,43.853072 21.059716,43.135433 C 22.154669,41.695246 23.833021,40.51978 25.790368,39.76651 C 28.930458,38.558099 33.049159,38.25144 37.115278,37.544549 z" id="path53057" />
</svg>
