<?xml version="1.0" encoding="UTF-8" standalone="no"?>
<!-- Created with Inkscape (http://www.inkscape.org/) -->

<svg xmlns:dc="http://purl.org/dc/elements/1.1/" xmlns:cc="http://creativecommons.org/ns#" xmlns:rdf="http://www.w3.org/1999/02/22-rdf-syntax-ns#" xmlns:svg="http://www.w3.org/2000/svg" xmlns="http://www.w3.org/2000/svg" xmlns:sodipodi="http://sodipodi.sourceforge.net/DTD/sodipodi-0.dtd" xmlns:inkscape="http://www.inkscape.org/namespaces/inkscape" version="1.1" width="50" height="35.416714" id="svg24337" inkscape:version="0.49 r12742" sodipodi:docname="PonupSign.svg">
  <sodipodi:namedview pagecolor="#ffffff" bordercolor="#666666" borderopacity="1" objecttolerance="10" gridtolerance="10" guidetolerance="10" inkscape:pageopacity="0" inkscape:pageshadow="2" inkscape:window-width="1269" inkscape:window-height="706" id="namedview17899" showgrid="false" borderlayer="true" fit-margin-top="0" fit-margin-left="0" fit-margin-right="0" fit-margin-bottom="0" inkscape:zoom="9.8333333" inkscape:cx="19.381831" inkscape:cy="14.033808" inkscape:window-x="0" inkscape:window-y="27" inkscape:window-maximized="0" inkscape:current-layer="svg24337" />
  <defs id="defs24339" />
  <metadata id="metadata24342">
    <rdf:RDF>
      <cc:Work rdf:about="">
        <dc:format>image/svg+xml</dc:format>
        <dc:type rdf:resource="http://purl.org/dc/dcmitype/StillImage" />
        <dc:title></dc:title>
      </cc:Work>
    </rdf:RDF>
  </metadata>
  <g transform="matrix(1.4756964,0,0,1.4756964,-0.82468777,-1517.5504)" id="layer1">
    <g transform="translate(0.5588465,0)" id="g24405">
      <path d="M 16.941151,1028.3622 C 7.5848141,1028.3622 0,1035.947 0,1045.3034 c 0,2.5218 0.55594063,4.9082 1.5441172,7.0588 l 30.7940728,0 c 0.98817,-2.1506 1.544117,-4.537 1.544117,-7.0588 c 0,-9.3564 -7.584814,-16.9412 -16.941156,-16.9412 z" id="path8991" style="color:#000000;fill:#434a54;fill-opacity:1;fill-rule:nonzero;stroke:none;stroke-width:1;marker:none;visibility:visible;display:inline;overflow:visible;enable-background:accumulate" inkscape:connector-curvature="0" />
      <path d="m 9.1550049,1036.9504 c -0.7293333,0.032 -1.534545,0.4379 -2.0187021,1.2071 a 0.82193868,0.82193868 0 0 0 -0.035943,0.062 c -0.4869397,0.9474 -0.8357828,1.9484 -1.073562,2.969 c -0.3337964,-0.2563 -0.6149759,-0.59 -0.7910211,-0.9708 a 0.82390224,0.82390224 0 1 0 -1.4947633,0.6935 c 0.3201973,0.6924 0.8252315,1.2882 1.4536538,1.7207 c 0.1691925,0.1165 0.3612604,0.187 0.5444903,0.2773 c -0.1597236,1.7099 0.016029,3.449 0.549623,5.1162 a 0.82199702,0.82199702 0 0 0 1.5666568,-0.4983 c -0.4331075,-1.3532 -0.5943846,-2.7648 -0.5033808,-4.1555 c 0.7508347,0.046 1.5006997,-0.1082 2.1727549,-0.4469 c 0.6813246,-0.3432 1.2632986,-0.8624 1.6745536,-1.505 c 0.297959,-0.4657 0.516867,-1.0126 0.565028,-1.618 c 0.04875,-0.6131 -0.08635,-1.2585 -0.472577,-1.803 c -0.490306,-0.6912 -1.290252,-1.0855 -2.1368109,-1.0478 z m 0.071894,1.6437 c 0.2592402,-0.012 0.5741387,0.1428 0.7242673,0.3544 c 0.1267218,0.1786 0.1961638,0.4485 0.1746438,0.7192 c -0.02215,0.2784 -0.1333955,0.5817 -0.3133386,0.8629 c -0.2496446,0.39 -0.6137471,0.7213 -1.0273125,0.9296 c -0.3664531,0.1847 -0.7848056,0.2642 -1.1968303,0.2621 c 0.2026591,-0.9328 0.5153198,-1.8421 0.9554062,-2.707 c 0.2548506,-0.4 0.3164588,-0.405 0.6831641,-0.4212 z m 18.4815101,4.1658 c -1.253917,0.06 -2.237005,1.0995 -2.265253,2.3371 a 0.82193868,0.82193868 0 0 0 -0.0051,0.021 a 0.82193868,0.82193868 0 0 0 -0.0051,0.1028 c 4.32e-4,0.014 -6.78e-4,0.027 0,0.041 c 5.04e-4,0.011 0.0045,0.02 0.0051,0.031 c 0.05057,1.097 0.0043,2.1354 -0.308191,3.0717 a 0.82272682,0.82272682 0 0 0 1.561517,0.5188 c 0.165501,-0.496 0.256544,-0.9934 0.318464,-1.4897 c 0.290064,0.1069 0.603913,0.1596 0.929735,0.1439 c 1.310311,-0.063 2.338389,-1.1912 2.275512,-2.5015 c -0.06287,-1.3104 -1.196353,-2.3385 -2.506651,-2.2755 z m -12.610361,0.3082 a 0.82193868,0.82193868 0 0 0 -0.785901,0.678 c -0.193476,1.012 -0.130467,1.7957 0.0051,2.3423 c 0.02661,0.1073 0.06454,0.1692 0.0976,0.2619 c 0.0321,0.1117 0.06917,0.2209 0.118143,0.3288 c 0.06572,0.1392 0.09905,0.1993 0.128395,0.2465 c 0.005,0.01 0.01224,0.031 0.01541,0.036 c 0.0049,0.01 0.03084,0.051 0.03084,0.051 a 0.82193868,0.82193868 0 0 0 1.361195,-0.9195 c -0.05846,-0.093 -0.09527,-0.194 -0.11301,-0.2928 c -0.05324,-0.2962 0.0719,-0.5936 0.33901,-0.7653 c 0.356181,-0.2291 0.803384,-0.1302 1.032466,0.2259 c 0.14868,0.2312 0.16192,0.5187 0.0308,0.7604 a 0.82193868,0.82193868 0 1 0 1.443407,0.7857 c 0.415823,-0.7663 0.379109,-1.7013 -0.09246,-2.4346 c -0.625992,-0.9733 -1.862046,-1.3439 -2.902195,-0.9298 a 0.82193868,0.82193868 0 0 0 -0.708835,-0.3749 z m -4.00656,0.344 c -1.3102909,0.063 -2.3383877,1.1912 -2.275505,2.5016 c 0.062863,1.3103 1.196359,2.3384 2.506644,2.2756 c 1.310312,-0.063 2.338394,-1.1913 2.275525,-2.5016 c -0.06287,-1.3103 -1.196379,-2.3384 -2.506664,-2.2756 z m 12.35353,0.2158 a 0.82193868,0.82193868 0 0 0 -0.64722,1.2636 c 0.05525,0.086 0.0862,0.1774 0.102744,0.2723 c 0.04965,0.2846 -0.06677,0.5832 -0.333876,0.7551 c -0.356207,0.2291 -0.808504,0.1353 -1.037599,-0.221 c -0.145487,-0.2261 -0.159119,-0.5107 -0.03595,-0.7498 a 0.82193868,0.82193868 0 1 0 -1.458814,-0.7551 c -0.390821,0.7588 -0.348703,1.6757 0.113031,2.3936 c 0.62216,0.9673 1.845472,1.3319 2.881629,0.9298 a 0.82193868,0.82193868 0 0 0 1.525567,-0.2671 c 0.193643,-1.0129 0.125141,-1.8028 -0.01027,-2.3526 c -0.02397,-0.097 -0.05809,-0.1509 -0.08732,-0.2363 c -0.03593,-0.1327 -0.08373,-0.2634 -0.143834,-0.3904 c -0.03252,-0.068 -0.03644,-0.083 -0.06163,-0.1284 c -0.02513,-0.046 -0.04344,-0.094 -0.07192,-0.1386 l -0.0051,0.01 c -0.0024,0 -0.02055,-0.036 -0.02055,-0.036 a 0.82193868,0.82193868 0 0 0 -0.708856,-0.3442 z m 4.345584,0.7705 c 0.42298,-0.02 0.760442,0.291 0.780749,0.714 c 0.0203,0.423 -0.285849,0.7656 -0.708856,0.7859 c -0.422961,0.02 -0.765596,-0.291 -0.785901,-0.714 c -8e-5,0 8.5e-5,0 0,-0.01 c -0.01743,-0.4205 0.292806,-0.7606 0.714008,-0.7808 z m -16.616922,0.6524 c 0.423008,-0.02 0.760457,0.291 0.780769,0.7139 c 0.02028,0.423 -0.285867,0.7657 -0.708862,0.7859 c -0.422981,0.02 -0.765596,-0.291 -0.785902,-0.7139 c -0.02029,-0.423 0.291001,-0.7656 0.713995,-0.7859 z" id="path8987" style="font-style:normal;font-variant:normal;font-weight:normal;font-stretch:normal;text-indent:0;text-align:start;text-decoration:none;line-height:normal;letter-spacing:normal;word-spacing:normal;text-transform:none;direction:ltr;block-progression:tb;writing-mode:lr-tb;text-anchor:start;baseline-shift:baseline;color:#000000;fill:#f6f7fb;fill-opacity:1;stroke:none;stroke-width:10;marker:none;visibility:visible;display:inline;overflow:visible;enable-background:accumulate;font-family:Sans;-inkscape-font-specification:Sans" inkscape:connector-curvature="0" />
    </g>
  </g>
</svg>
