<?xml version="1.0" encoding="UTF-8" standalone="no"?>
<!-- Created with Inkscape (http://www.inkscape.org/) -->

<svg xmlns:dc="http://purl.org/dc/elements/1.1/" xmlns:cc="http://creativecommons.org/ns#" xmlns:rdf="http://www.w3.org/1999/02/22-rdf-syntax-ns#" xmlns:svg="http://www.w3.org/2000/svg" xmlns="http://www.w3.org/2000/svg" xmlns:sodipodi="http://sodipodi.sourceforge.net/DTD/sodipodi-0.dtd" xmlns:inkscape="http://www.inkscape.org/namespaces/inkscape" width="115.32983" height="77.696648" id="svg27288" version="1.1" inkscape:version="0.49 r12742" viewBox="0 0 115.32983 77.696649" sodipodi:docname="areciclar_icon.svg" inkscape:export-filename="/home/pablolizardo/sources/site/images/games/areciclar_icon.png" inkscape:export-xdpi="90" inkscape:export-ydpi="90">
  <defs id="defs27290" />
  <sodipodi:namedview id="base" pagecolor="#ffffff" bordercolor="#666666" borderopacity="1.0" inkscape:pageopacity="0.0" inkscape:pageshadow="2" inkscape:zoom="5.6" inkscape:cx="29.981141" inkscape:cy="39.0278" inkscape:document-units="px" inkscape:current-layer="g28085" showgrid="false" borderlayer="true" inkscape:showpageshadow="false" fit-margin-top="0" fit-margin-left="0" fit-margin-right="0" fit-margin-bottom="0" inkscape:window-width="1496" inkscape:window-height="926" inkscape:window-x="114" inkscape:window-y="35" inkscape:window-maximized="0" />
  <metadata id="metadata27293">
    <rdf:RDF>
      <cc:Work rdf:about="">
        <dc:format>image/svg+xml</dc:format>
        <dc:type rdf:resource="http://purl.org/dc/dcmitype/StillImage" />
        <dc:title />
      </cc:Work>
    </rdf:RDF>
  </metadata>
  <g inkscape:label="Capa 1" inkscape:groupmode="layer" id="layer1" transform="translate(9.3114362e-6,-974.6655)">
    <g id="g28085" transform="translate(-0.92382812,-1.47265)">
      <path style="fill:#000000;fill-opacity:0.08433736" d="m 96.546863,978.14145 c -2.956766,4.18377 -9.045037,5.10371 -10.967376,10.34607 c -1.386724,4.5618 -0.841189,9.66617 -0.124421,14.33168 c 1.360709,4.973 4.386661,10.3034 9.646851,11.8196 c 3.714097,-3.0328 -2.122289,-8.0269 -1.577608,-12.1811 c -1.470488,-7.86794 -1.537015,-16.8354 3.876042,-23.32136 c 0.147249,-0.51958 -0.476942,-0.86231 -0.853488,-0.99489 z m -71.802734,4.05273 c -2.144141,0.74788 -8.161817,-1.47386 -7.549248,2.10154 c 0.361202,1.34454 -0.785024,4.37422 1.515106,3.55591 c 2.447994,-0.94956 1.37539,1.72411 1.479476,3.1872 c -0.299391,7.71069 -0.308754,15.42867 -0.408225,23.14367 c 2.097656,0 4.195313,0 6.292969,0 c 0.08676,-3.7753 -0.09129,-7.5719 0.330073,-11.3282 c 4.589319,-1.3029 4.582056,6.2757 7.247709,8.875 c 0.760287,5.1734 6.53527,2.009 8.116372,0.1487 c -2.460515,-3.9648 -5.166453,-7.7707 -7.731264,-11.6682 c 4.755562,-2.94076 7.010835,-9.93113 3.106797,-14.47186 c -3.09576,-3.37773 -8.141021,-3.45124 -12.399765,-3.54376 z m 53.505859,1.05274 c -8.986496,-0.5079 -18.214742,7.4775 -16.958608,16.84308 c 0.03771,7.357 6.650162,14.4589 14.271059,13.3653 c 4.965033,1.0283 9.492844,-4.0425 4.613571,-6.9808 c -3.989698,1.5959 -10.082203,1.3401 -11.662785,-3.4498 c -2.148752,-4.5366 -0.06648,-10.16507 4.582466,-12.12739 c 1.519216,-2.11622 6.515762,0.75984 6.623155,-1.94006 c -0.326356,-1.85684 1.65024,-6.17626 -1.468858,-5.71033 z m -52,4.54101 c 3.914127,-0.85803 7.846914,3.89596 4.677565,7.13098 c -1.390066,1.56738 -5.789696,3.49097 -4.677565,-0.15854 c 0,-2.32415 0,-4.64829 0,-6.97244 z m 23.978516,1.23242 c -5.625569,-0.0941 -9.118043,5.85669 -8.392578,11.00395 c -0.398546,4.5196 2.310739,9.9329 7.456413,9.7523 c 4.348754,1.2882 10.238767,-5.5433 7.809211,-8.2309 c -4.213833,-0.7998 -7.891685,6.8376 -10.873797,0.9663 c 3.374921,-2.0393 7.571587,-2.4193 11.326689,-3.65445 c 0.136379,-3.2038 -1.612671,-7.86373 -5.043972,-9.32957 c -0.720431,-0.30887 -1.498601,-0.48161 -2.281966,-0.50763 z m -0.0957,5.06055 c 6.204255,1.33949 -2.058888,4.35469 -3.870589,3.3552 c 0.424144,-1.80135 1.954429,-3.3271 3.870589,-3.3552 z M 8.8691288,994.24301 C 5.9223636,999.5328 3.514741,1005.119 0.92381636,1010.5946 c 4.38768224,2.7942 3.30731134,-4.1737 7.17651184,-3.6938 c 3.4628648,-1.2906 1.1895652,4.7 3.8840348,4.516 c 5.329915,-0.601 -0.666759,-7.4153 -0.765079,-10.8699 c -0.756311,-2.10854 -1.3766568,-4.28188 -2.3501552,-6.30389 z m -0.5703125,6.93559 c 1.9107807,1.9246 0.2299622,4.3169 -1.298091,3.0246 c 0.4286257,-1.0098 0.8261915,-2.0338 1.298091,-3.0246 z m 99.7265637,12.0625 c -0.53409,7.2882 0.0119,14.6387 -0.59584,21.9221 c 2.89385,2.3336 6.70223,1.584 6.06737,-2.7984 c 0.98819,-5.7817 2.11277,-11.5549 2.74527,-17.3874 c -2.69232,-0.7524 -5.4542,-1.3095 -8.2168,-1.7363 z m -41.240236,5.1562 c -5.167573,-0.6671 -9.074343,3.5341 -10.659046,8.0343 c -1.615496,3.3397 6.968144,4.1144 7.696338,0.7486 c 3.183829,-5.1132 9.234122,1.0795 6.021302,4.4398 c -4.211575,-0.8875 -11.255584,-1.2168 -11.831789,4.5051 c -1.400183,4.8126 3.38539,8.2214 7.651225,8.558 c 4.429959,-0.102 8.712903,3.5307 12.540893,0.6718 c 0.152112,-7.4613 1.249985,-15.5807 -2.463498,-22.4016 c -1.890444,-3.1115 -5.341391,-4.8435 -8.955425,-4.556 z m 16.955078,0.7207 c -0.125586,11.206 -0.600608,22.407 -1.070312,33.6035 c 2.62869,0.2065 5.254933,0.4539 7.888672,0.5879 c 0.115512,-2.6732 0.23205,-5.3464 0.349609,-8.0195 c 2.393137,2.7997 4.427443,5.986 7.310547,8.3066 c 3.014462,0.2498 6.044252,0.179 9.066412,0.2383 c -3.57094,-4.3763 -7.22381,-8.7084 -10.70899,-13.1621 c 2.306893,-3.7954 7.37343,-7.1724 5.95957,-12.3476 c -2.51137,-6.9739 -10.634146,-9.0541 -17.314538,-9.1103 c -0.493654,-0.032 -0.987324,-0.065 -1.48097,-0.097 z m -44.039062,2.1074 c 0.522645,10.5123 0.924051,21.0358 1.037109,31.5606 c 5.708955,-0.09 11.454446,0.2721 17.13086,-0.4434 c 0,-2.5319 0,-5.0638 0,-7.5957 c -3.164054,-0.7196 -9.044979,2.7638 -10.106092,-0.7397 c -0.475019,-7.4247 -0.283527,-14.8737 0.106092,-22.2935 c -2.70505,-0.3361 -5.446605,-0.3368 -8.167969,-0.4883 z m -12.132813,3.7246 c -5.785038,-0.032 -9.927705,5.9224 -9.009765,11.4043 c -0.02393,4.7951 0.727388,11.4663 6.339188,12.7569 c 5.495725,2.1285 10.973047,-1.4102 12.088436,-7.0159 c -1.257095,-1.8496 -6.52433,-1.7958 -7.923735,1.0337 c -5.014277,0.8338 -6.799987,-7.317 -3.281205,-10.1147 c 4.572759,-2.9161 5.702226,5.2507 10.625548,2.2244 c 1.308599,-3.7461 -2.420059,-9.8383 -6.918085,-10.1774 c -0.635225,-0.093 -1.278607,-0.1325 -1.920382,-0.1113 z m 64.246094,1.9668 c 5.903741,2e-4 3.705028,7.9761 -0.615554,7.3861 c 0.226217,-2.2275 -0.971271,-5.8496 0.615554,-7.3861 z m -23.894531,8.9082 c 3.255945,-0.8309 3.133635,1.6869 2.858858,4.0655 c -1.269825,1.842 -10.290801,-3.9169 -2.858858,-4.0655 z m 41.67969,3.002 c -6.17457,-0.9754 -6.35723,8.443 -0.34204,8.5363 c 4.69934,1.5476 8.49763,-6.7829 2.80386,-7.6817 c -0.52892,-0.8406 -1.58492,-0.8202 -2.46182,-0.8546 z" id="path28003" inkscape:connector-curvature="0" />
      <path d="m 96.5461,976.14197 c -0.61495,-0.0632 -1.35068,0.65633 -2.4742,2.33541 c -1.00613,1.50366 -1.50253,1.90977 -2.79613,2.28548 c -2.28132,0.66258 -3.99187,2.25292 -5.31609,4.9428 c -1.14959,2.33506 -1.15154,2.35032 -1.14344,7.59047 c 0.007,3.97449 0.16138,5.80405 0.63973,7.52387 c 1.42651,5.1291 4.00432,8.9349 7.35318,10.8556 c 2.24615,1.2883 2.71023,1.2859 3.47884,-0.015 c 0.60853,-1.0302 0.60218,-1.083 -0.41214,-3.2346 c -2.64912,-5.6194 -3.95882,-16.39875 -2.70729,-22.28856 c 0.60462,-2.84546 1.95706,-5.93138 3.39418,-7.74586 c 0.99352,-1.25441 1.05051,-1.44866 0.56754,-1.93164 c -0.18836,-0.18836 -0.3792,-0.29662 -0.58418,-0.31771 z" style="fill:#ffce55;fill-opacity:1" id="path27168" inkscape:connector-curvature="0" />
      <path id="path27158" transform="translate(-1.1761053e-5,992.36215)" d="m 24.744141,-12.167969 c -2.38683,0 -5.076863,0.09921 -5.976563,0.222657 l -1.634766,0.224609 l 0.09961,2.6542968 l 0.101562,2.6542968 l 1.501954,-0.1074218 l 1.501953,-0.1113282 l -0.177735,3.9609375 c -0.0974,2.17845999 -0.221784,8.1310126 -0.277344,13.2265629 l -0.101562,9.263671 l 3.146484,0 l 3.146485,0 l 0.04687,-5.472656 c 0.0254,-3.0101 0.153023,-5.6448685 0.283203,-5.8554685 c 0.13012,-0.2106 0.767346,-0.3847656 1.416015,-0.3847656 c 0.91812,0 1.232856,0.1748094 1.421876,0.7871093 c 0.133619,0.4326 1.57909,3.2745528 3.21289,6.3144528 c 1.6643,3.0966 3.144675,5.459547 3.365234,5.373047 c 0.21651,-0.085 1.691004,-0.656031 3.277344,-1.269531 c 1.58634,-0.6135 2.882813,-1.233706 2.882813,-1.378906 c 0,-0.1453 -1.209373,-2.061513 -2.689453,-4.257813 c -1.48008,-2.1963 -3.268047,-4.855856 -3.972657,-5.910156 L 34.037109,5.8476562 L 35.177734,4.96875 c 1.40465,-1.08449 3.097809,-3.5722619 3.667969,-5.38867188 C 39.477683,-2.4332918 39.087714,-5.5605225 37.964844,-7.4765625 C 36.033764,-10.771682 32.096711,-12.167969 24.744141,-12.167969 Z M 78.25,-11.115234 l 0,0.002 c -1.44133,-0.0151 -3.516573,0.171563 -4.757812,0.501953 c -4.83309,1.2863999 -8.994627,4.6277468 -10.972657,8.8105468 c -0.94541,1.99921992 -1.150033,2.8890237 -1.251953,5.4023437 C 60.953748,11.339629 64.941265,17.2551 71.609375,18.9395 c 2.58948,0.6541 8.606293,-0.210128 10.351563,-1.486328 c 0.613489,-0.4486 0.609426,-0.558222 -0.126954,-2.982422 c -0.42041,-1.3841 -0.866707,-2.515772 -0.992187,-2.513672 c -0.12554,0 -1.001423,0.239091 -1.945313,0.525391 c -3.18091,0.965 -6.645102,0.535106 -8.539062,-1.058594 C 67.900542,9.3566282 66.896173,3.8505562 68.445312,0.94140625 c 0.93888,-1.76304997 2.627571,-3.36398005 4.650391,-4.40625005 c 1.20122,-0.6189699 2.164813,-0.8137687 4.070313,-0.8242187 l 2.496093,-0.013672 l 0.16211,-3.1484375 c 0.0897,-1.7305699 0.09923,-3.263963 0.01953,-3.408203 c -0.0917,-0.16588 -0.72895,-0.246989 -1.59375,-0.255859 z m -52,4.5410152 l 1.083984,0 c 0.59585,0 1.628475,0.2590119 2.296875,0.5761719 c 3.12064,1.48086 3.295872,5.37400506 0.332032,7.390625 c -0.64781,0.44076 -1.748033,0.8946425 -2.445313,1.0078125 L 26.25,2.6054688 l 0,-4.5898438 l 0,-4.5898438 z m 23.978516,1.2324219 c -2.01115,-0.069 -4.104126,0.8015319 -5.822266,2.5761719 C 42.3807,-0.67347503 41.797928,1.2384594 41.835938,5.6621094 C 41.879337,10.729129 43.49491,13.7771 46.75,14.9375 c 2.04806,0.7301 4.895466,0.636297 6.666016,-0.220703 c 1.66046,-0.8039 3.304658,-2.8917 4.136718,-5.2500001 c 0.75261,-2.13317 0.681128,-2.4952831 -0.451172,-2.2832031 c -0.528769,0.0991 -1.717475,0.2805537 -2.640624,0.4023437 c -1.33872,0.1766 -1.741921,0.3894344 -1.994141,1.0527344 C 51.695477,10.667472 48.75552,11.108284 47,9.4589844 c -1.60679,-1.5094 -1.243369,-1.7604526 4.962891,-3.4453125 L 57.746094,4.4433594 L 57.513672,3.0410156 c -0.43466,-2.61419993 -1.618601,-5.2182094 -2.957031,-6.5058594 c -1.24978,-1.2023399 -2.763935,-1.8235331 -4.328125,-1.8769531 z M 8.8691406,-0.41210938 C 8.7296595,-0.55360937 5.5437738,5.9557439 1.9101562,13.808594 l -0.98632808,2.130859 l 1.40820308,0.353516 c 0.7742792,0.1945 1.5529349,0.353515 1.7304688,0.353515 c 0.2112285,0 0.5623828,-0.715612 1.0136719,-2.070312 c 0.6842278,-2.0538 0.6953543,-2.070778 1.5078125,-2.205078 c 0.4504519,-0.075 1.3797207,-0.137472 2.0644531,-0.138672 l 1.2441406,0 l 0.4843749,2.042969 c 0.266782,1.1234 0.527445,2.17549 0.578125,2.33789 c 0.06789,0.2176 0.338337,0.255285 1.029297,0.146485 c 1.435065,-0.2257 2.595703,-0.551169 2.595703,-0.730469 c 0,-0.239 -4.030928,-12.2132414 -4.845703,-14.3945314 C 9.3492469,0.59912587 8.9599652,-0.31871532 8.8691406,-0.41210938 Z M 50.132812,-0.28125 c 0.85935,0 2.685547,1.19533251 2.685547,1.7578125 c 0,0.17016 -1.061465,0.6222263 -2.359375,1.0039063 C 45.705134,3.8785687 45.880888,3.8997331 46.673828,2.0019531 C 47.203948,0.73325315 48.741773,-0.28125 50.132812,-0.28125 Z M 8.2988281,6.5234375 c 0.075005,-0.0839 0.9804688,2.7614781 0.9804688,3.0800781 c 0,0.1087 -0.5371952,0.1972656 -1.1933594,0.1972656 l -1.1914063,0 L 7.5625,8.2011719 C 7.9297358,7.3206319 8.2613028,6.5655175 8.2988281,6.5234375 Z M 108.02539,18.878906 c -0.14045,10e-5 -0.25286,3.999972 -0.25,8.888672 c 0.003,4.8888 -0.1,9.915622 -0.22851,11.169922 c -0.26131,2.5506 -0.57549,2.220222 2.83007,2.982422 c 2.10385,0.4709 2.24672,0.448556 2.4336,-0.402344 c 0.94739,-4.3134 3.64024,-20.718544 3.43164,-20.902344 c -0.232,-0.2045 -7.48527,-1.737028 -8.2168,-1.736328 z m -41.240234,5.15625 c -3.73828,-0.03 -5.651997,0.712547 -7.716797,2.998047 c -1.61083,1.783 -3.89173,6.55051 -3.30664,6.912109 c 0.22229,0.1373 1.764554,0.451819 3.427734,0.699219 c 2.81852,0.4193 3.048909,0.408913 3.386719,-0.179687 c 0.79326,-1.3821 2.698657,-3.250485 3.529297,-3.458985 c 1.22405,-0.3072 3.56714,0.3897 3.99414,1.1875 c 0.19557,0.3654 0.355469,1.714947 0.355469,2.998047 c 0,2.0894 -0.0633,2.303506 -0.611328,2.066406 c -0.3365,-0.145599 -2.106894,-0.329856 -3.933594,-0.410156 c -2.95868,-0.1298 -3.49175,-0.05804 -4.875,0.664063 c -2.3144,1.2074 -2.957605,2.302656 -3.103515,5.285156 c -0.10707,2.1872 -0.01409,2.676222 0.703125,3.732422 c 1.66478,2.453 4.665722,3.73175 9.607422,4.09375 c 2.450279,0.1795 2.882729,0.308137 3.037109,0.898437 c 0.1689,0.6458 0.378927,0.672747 3.435547,0.435547 c 1.79104,-0.1389 3.328245,-0.321897 3.416015,-0.404297 c 0.0878,-0.082 0.223852,-3.012072 0.300782,-6.513672 C 78.651721,35.023163 77.388482,29.6548 74.101562,26.625 c -2.233009,-2.0583 -3.652706,-2.560444 -7.316406,-2.589844 z m 16.955078,0.720703 l 0,2 c 0,2.3722 -0.59559,20.873088 -0.875,27.179688 l -0.195312,4.423828 l 3.068359,0.25 c 1.6886,0.1366 3.464603,0.267569 3.945313,0.292969 l 0.875,0.04492 L 90.732422,54.9375 l 0.175781,-4.009766 l 3.291016,4.080078 c 1.85805,2.3035 3.608401,4.145363 4.019531,4.226563 c 0.40063,0.079 2.60363,0.165206 4.89648,0.191406 l 4.16993,0.04687 l -0.75977,-0.808594 c -1.51579,-2.112999 -3.60064,-4.479884 -5.7832,-7.146484 c -2.156912,-2.6435 -4.030328,-4.986331 -4.166018,-5.207031 c -0.14449,-0.2349 0.610839,-1.279431 1.824219,-2.519531 c 5.212639,-5.3272 5.737009,-9.643069 1.671879,-13.792969 c -3.044324,-3.1077 -6.973983,-4.632931 -12.923832,-5.019531 l -3.408204,-0.222657 z m -44.039062,2.107422 l 0.175781,3.28125 c 0.23347,4.3795 0.861328,23.434119 0.861328,26.136719 l 0,2.142578 l 6.94336,0 c 3.81884,0 7.672333,-0.100356 8.564453,-0.222656 l 1.623047,-0.220703 l 0,-3.798828 l 0,-3.796875 l -0.962891,0.0098 c -0.52877,0.01 -2.691511,0.230347 -4.806641,0.498047 c -2.11512,0.2677 -3.963795,0.371269 -4.109375,0.230469 c -0.44703,-0.4321 -0.68802,-13.919822 -0.33789,-18.919922 c 0.18177,-2.5958 0.279307,-4.778463 0.216797,-4.851563 c -0.0624,-0.073 -1.925795,-0.212746 -4.140625,-0.310546 l -4.027344,-0.177735 z m -12.132813,3.72461 c -3.60983,0.1192 -6.655546,2.137409 -8.222656,5.599609 c -0.69991,1.5463 -0.805729,2.322988 -0.787109,5.804688 c 0.0445,8.292699 2.233694,12.19944 7.246094,12.93164 c 6.061319,0.8854 8.072301,-0.197019 10.582031,-5.699219 c 0.50991,-1.118 0.842661,-2.118256 0.738281,-2.222656 c -0.10423,-0.1045 -1.537694,-0.2723 -3.183594,-0.375 c -2.18035,-0.1361 -2.992187,-0.07604 -2.992187,0.226563 c 0,0.8211 -1.702732,2.130859 -2.769531,2.130859 c -1.41302,0 -3.290731,-1.690141 -3.8125,-3.431641 c -1.43164,-4.7784 1.315323,-8.796931 4.970703,-7.269531 c 0.84631,0.3536 1.326117,0.862506 1.648437,1.753906 c 0.50034,1.3836 0.568221,1.403063 4.050781,1.039063 c 2.40931,-0.2518 2.392052,-0.18801 1.082032,-4.28711 c -1.03186,-3.228599 -3.213537,-5.410409 -5.972657,-5.974609 c -0.88192,-0.1803 -1.745065,-0.254062 -2.578125,-0.226562 z m 64.246094,1.966797 c 1.40052,0 3.18266,1.127737 3.6875,2.335937 c 0.41866,1.002 0.416034,1.305353 -0.0098,2.126953 c -0.59792,1.1564 -1.417174,1.905156 -2.908204,2.660156 c -0.61535,0.3116 -1.204847,0.566407 -1.310546,0.566407 c -0.10571,0 -0.191407,-1.730504 -0.191407,-3.845703 c 0,-3.673 0.0314,-3.84375 0.732422,-3.84375 z m -23.894531,8.908203 c 0.44947,-0.011 0.922557,0.01117 1.398437,0.07617 l 1.486329,0.199219 l 0,2.22461 c 0,1.2237 -0.03979,2.215878 -0.08789,2.205078 c -3.6361,-0.8169 -6.347929,-2.618594 -5.636719,-3.746094 c 0.35561,-0.5637 1.491474,-0.922784 2.839844,-0.958984 z m 41.679688,3.001953 c -1.07698,-0.011 -2.28335,0.145415 -2.92773,0.478515 c -1.81986,0.9412 -2.65142,4.056135 -1.51563,5.677735 c 0.30134,0.4301 1.28513,1.165865 2.18555,1.634765 c 1.93538,1.0077 3.05298,1.081325 4.93554,0.328125 c 1.04308,-0.4175 1.56869,-0.92245 2.10547,-2.03125 c 0.81902,-1.6918 0.87932,-2.389643 0.30664,-3.464843 c -0.52324,-0.9825 -1.3496,-1.612854 -2.13672,-1.626953 C 112.21019,45.450938 111.85077,45.2473 111.75586,45 c -0.13107,-0.342 -1.07925,-0.523056 -2.15625,-0.535156 z" style="fill:#f6f7fb;fill-opacity:1" inkscape:connector-curvature="0" />
      <path style="opacity:0.73279353;color:#000000;color-interpolation:sRGB;color-interpolation-filters:linearRGB;fill:#f6bb43;fill-opacity:1;fill-rule:nonzero;stroke:none;stroke-width:2.44620681;marker:none;visibility:visible;display:inline;overflow:visible;enable-background:accumulate;clip-rule:nonzero;color-rendering:auto;image-rendering:auto;shape-rendering:auto;text-rendering:auto" d="m 96.86863,976.45797 c -1.022824,0.0415 -1.455605,0.81488 -1.98438,1.60742 c -1.154481,-0.64012 -0.48741,1.34412 -1.38086,1.10744 c 0.31266,1.42524 -1.511658,-0.31301 -1.362696,1.06399 c 1.347901,1.09586 -0.647368,2.35358 -0.850542,3.66602 c -1.813186,3.84707 -1.781634,8.2446 -1.094239,12.3579 c 0.890042,5.65276 2.251968,11.28116 4.590587,16.52146 c 0.797087,1.0106 1.307101,-0.6065 0.599285,-1.1776 c -2.292039,-5.6329 -3.676292,-11.61728 -4.414448,-17.64462 c -0.449223,-3.52829 -0.0028,-7.19902 1.618916,-10.39156 c 0.563988,-1.29199 1.402351,-2.47911 2.260657,-3.3331 c 1.388747,0.3437 0.619389,-2.35209 1.896516,-1.82155 c 1.126381,-0.40216 0.881524,-1.36231 0.121204,-1.9558 z m -6,5.5 c -1.20006,0.32861 -1.87118,1.63255 -2.498781,2.63295 c -1.538758,2.73275 -2.200428,5.89149 -2.000489,9.01433 c 0.08116,4.72519 1.860373,9.24255 4.234756,13.26615 c 0.510243,0.651 1.172606,3.2466 2.004452,1.761 c -0.541716,-1.4662 -1.454488,-2.7671 -2.153978,-4.1627 c 1.272843,0.037 0.23618,-1.9752 -0.36518,-0.7079 c -1.632609,-3.3349 -2.728415,-6.98552 -2.700741,-10.72531 c 0.0204,-0.82293 -0.03277,-3.11918 0.296589,-3.06401 c 0.864229,1.01212 1.821485,-1.41447 0.365102,-0.8454 c -0.91186,0.97895 0.104006,-1.32547 0.228859,-1.85171 c 0.657813,-1.66378 1.423026,-3.40799 2.89283,-4.51654 c 0.237379,-0.27595 0.04405,-0.74151 -0.303419,-0.80086 z m -2.20704,11.69726 c -1.271149,0.13307 -0.741082,2.25977 0.237981,1.04541 c 0.44889,-0.29978 0.386561,-1.04593 -0.237981,-1.04541 z m -3.4707,0.39063 c -1.186165,0.19267 -0.563705,2.18805 0.318998,1.01379 c 0.422202,-0.322 0.276842,-1.06548 -0.318998,-1.01379 z m 4.50586,4.45703 c -1.176366,-0.0204 -0.859546,2.42831 0.15039,1.23438 c 0.263892,-0.38946 0.562663,-1.11403 -0.15039,-1.23438 z m 0.83398,10.16601 c -1.454278,0.2101 0.243959,2.0638 0.462077,0.478 c -0.0025,-0.2493 -0.221603,-0.4563 -0.462077,-0.478 z" id="path27997" inkscape:connector-curvature="0" />
    </g>
  </g>
</svg>
