<?xml version="1.0" encoding="UTF-8" standalone="no"?>
<!-- Created with Inkscape (http://www.inkscape.org/) -->

<svg xmlns:dc="http://purl.org/dc/elements/1.1/" xmlns:cc="http://creativecommons.org/ns#" xmlns:rdf="http://www.w3.org/1999/02/22-rdf-syntax-ns#" xmlns:svg="http://www.w3.org/2000/svg" xmlns="http://www.w3.org/2000/svg" xmlns:sodipodi="http://sodipodi.sourceforge.net/DTD/sodipodi-0.dtd" xmlns:inkscape="http://www.inkscape.org/namespaces/inkscape" width="119.791" height="110.31086" id="svg28091" version="1.1" inkscape:version="0.49 r12742" viewBox="0 0 119.79101 110.31086" sodipodi:docname="thief_icon.svg" inkscape:export-filename="/home/pablolizardo/sources/site/images/games/thief_icon.png" inkscape:export-xdpi="90" inkscape:export-ydpi="90">
  <defs id="defs28093" />
  <sodipodi:namedview id="base" pagecolor="#ffffff" bordercolor="#666666" borderopacity="1.0" inkscape:pageopacity="0.0" inkscape:pageshadow="2" inkscape:zoom="4.0776423" inkscape:cx="48.653209" inkscape:cy="49.612619" inkscape:document-units="px" inkscape:current-layer="layer1" showgrid="false" units="px" borderlayer="true" inkscape:showpageshadow="false" fit-margin-top="0" fit-margin-left="0" fit-margin-right="0" fit-margin-bottom="0" inkscape:window-width="1920" inkscape:window-height="1017" inkscape:window-x="0" inkscape:window-y="27" inkscape:window-maximized="1" />
  <metadata id="metadata28096">
    <rdf:RDF>
      <cc:Work rdf:about="">
        <dc:format>image/svg+xml</dc:format>
        <dc:type rdf:resource="http://purl.org/dc/dcmitype/StillImage" />
        <dc:title></dc:title>
      </cc:Work>
    </rdf:RDF>
  </metadata>
  <g inkscape:label="Capa 1" inkscape:groupmode="layer" id="layer1" transform="translate(2.3956077,-957.20684)">
    <path id="path28729" d="m 79.097202,957.20857 c -14.387405,-0.14421 -28.652972,8.68164 -33.456851,24.23481 c -2.740558,8.87293 -1.489807,19.70002 3.21868,27.86712 c 1.415254,2.4549 1.563436,3.1474 0.739856,3.4634 c -0.56608,0.2172 -1.028227,0.8457 -1.028227,1.3952 c 0,0.5495 -10.236905,10.164 -22.749268,21.3686 c -12.512371,11.2045 -22.7887792,20.7546 -22.836649,21.2229 c -0.2933911,2.8731 2.5099605,7.088 6.2247301,9.3531 c 1.2650339,0.7714 2.8301339,1.4026 3.4779269,1.404 c 1.376062,0 2.834714,-1.5332 25.399956,-26.7922 c 9.370072,-10.4887 17.853598,-19.4429 18.851896,-19.8976 c 1.49362,-0.6804 2.24402,-0.5647 4.244,0.6524 c 6.781207,4.1268 16.575479,5.7042 24.278506,3.912 c 26.999412,-6.2818 36.643422,-37.83909 17.648872,-57.75286 C 96.405873,960.6102 87.729662,957.29512 79.097202,957.20857 Z m -1.674886,4.42751 c 1.808318,-0.0641 3.649719,0.0309 5.5111,0.29421 c 16.504045,2.33549 28.020744,18.13409 25.201864,34.57252 c -2.08714,12.17129 -10.512674,21.26349 -22.635656,24.42119 c -4.945927,1.2883 -8.753986,1.3088 -13.812677,0.079 c -8.512458,-2.07 -17.044485,-9.1047 -20.684062,-17.0546 c -2.568345,-5.60995 -3.185606,-15.1958 -1.342823,-20.89382 c 4.116299,-12.72799 15.104061,-20.96896 27.762254,-21.4181 z m -0.04654,4.9664 c -2.717907,0.0794 -5.379623,0.63409 -7.774366,1.70401 c -3.831551,1.71186 -10.341469,6.80133 -11.523182,9.0094 c -0.641931,1.19945 -0.308104,1.1501 2.834186,-0.42819 c 9.409466,-4.7261 23.452476,-5.31738 34.991923,-1.47098 c 0.850044,0.28333 -0.0027,-0.90201 -2.02732,-2.81671 c -4.272492,-4.04138 -10.521846,-6.17206 -16.501241,-5.99753 z" style="color:#000000;color-interpolation:sRGB;color-interpolation-filters:linearRGB;fill:#000000;fill-opacity:0.08433736;fill-rule:nonzero;stroke:none;stroke-width:1.00000012;marker:none;visibility:visible;display:inline;overflow:visible;enable-background:accumulate;clip-rule:nonzero;color-rendering:auto;image-rendering:auto;shape-rendering:auto;text-rendering:auto" inkscape:connector-curvature="0" />
    <path style="font-size:45.31422806px;font-style:normal;font-variant:normal;font-weight:normal;font-stretch:normal;text-indent:0;text-align:center;text-decoration:none;line-height:87.00000048%;letter-spacing:0px;word-spacing:0px;text-transform:none;direction:ltr;block-progression:tb;writing-mode:lr-tb;text-anchor:middle;color:#000000;color-interpolation:sRGB;color-interpolation-filters:linearRGB;fill:#000000;fill-opacity:0.08433736;fill-rule:nonzero;stroke:none;stroke-width:1.00000012;marker:none;visibility:visible;display:inline;overflow:visible;enable-background:accumulate;clip-rule:nonzero;color-rendering:auto;image-rendering:auto;shape-rendering:auto;text-rendering:auto;font-family:Patua One;-inkscape-font-specification:Patua One" d="m 25.317283,975.16192 l -0.453125,3.76172 c 0.422932,0.57398 1.253599,1.08786 2.492187,1.54101 l 0,20.70895 c -1.268798,0.4834 -2.099464,0.9807 -2.492187,1.4942 l 0.453125,3.7617 l 10.603515,0 l 0.453125,-3.7617 c -0.453142,-0.5135 -1.283808,-1.0108 -2.492187,-1.4942 l 0,-9.06442 l 9.96875,0 l 0,9.06442 c -1.268798,0.4834 -2.099464,0.9807 -2.492188,1.4942 l 0.453125,3.7617 l 10.603516,0 l 0.453125,-3.7617 c -0.453143,-0.5135 -1.283808,-1.0108 -2.492188,-1.4942 l 0,-20.70895 c 1.17817,-0.45315 2.008836,-0.96703 2.492188,-1.54101 l -0.453125,-3.76172 l -10.603516,0 l -0.453125,3.76172 c 0.422933,0.57398 1.253599,1.08786 2.492188,1.54101 l 0,7.11328 l -9.96875,0 l 0,-7.11328 c 1.17817,-0.45315 2.008835,-0.96703 2.492187,-1.54101 l -0.453125,-3.76172 l -10.603515,0 z m 30.886718,0 l -0.453125,3.76172 c 0.422933,0.57398 1.253599,1.08786 2.492188,1.54101 l 0,20.70895 c -1.268799,0.4834 -2.099464,0.9807 -2.492188,1.4942 l 0.453125,3.7617 l 10.603516,0 l 0.453125,-3.7617 c -0.453142,-0.5135 -1.283808,-1.0108 -2.492188,-1.4942 l 0,-20.70895 c 1.17817,-0.45315 2.008836,-0.96703 2.492188,-1.54101 l -0.453125,-3.76172 l -10.603516,0 z m 14.427735,0 l -0.453125,3.76172 c 0.422932,0.57398 1.253599,1.08786 2.492187,1.54101 l 0,20.70895 c -1.268798,0.4834 -2.099464,0.9807 -2.492187,1.4942 l 0.453125,3.7617 l 21.02539,0 l 0,-7.88477 l -3.353515,-0.4082 c -0.725028,0.6646 -1.283059,1.78264 -1.675781,3.35347 l -7.431641,0 l 0,-8.65425 l 6.298828,0 c 0.362514,0.96674 0.74009,1.60027 1.132813,1.90234 l 2.853515,-0.36328 l 0,-8.06445 L 86.62783,985.992 c -0.392723,0.36252 -0.770299,0.998 -1.132813,1.90429 l -6.298828,0 l 0,-7.79492 l 7.068359,0 c 0.422933,1.63131 0.980964,2.74933 1.675782,3.35352 l 3.353515,-0.40821 l 0,-7.88476 l -20.662109,0 z m 24.425781,0 l -0.453125,3.76172 c 0.422933,0.57398 1.253598,1.08786 2.492188,1.54101 l 0,20.70895 c -1.268799,0.4834 -2.099465,0.9807 -2.492188,1.4942 l 0.453125,3.7617 l 12.507813,0 l 0.45312,-3.7617 c -0.90628,-0.7854 -2.37244,-1.4043 -4.39648,-1.8574 l 0,-7.52153 l 6.29883,0 c 0.36251,0.96667 0.74008,1.60022 1.13281,1.90235 l 2.85547,-0.36329 l 0,-8.06445 l -2.85547,-0.31836 c -0.39273,0.36251 -0.7703,0.99802 -1.13281,1.9043 l -6.29883,0 l 0,-8.24805 l 7.07031,0 c 0.42293,1.63131 0.98096,2.74933 1.67578,3.35352 l 3.35352,-0.40821 l 0,-7.88476 l -20.664063,0 z m -97.3906247,0.0449 l 0,6.48047 l 2.8554688,0.36328 c 0.3927231,-0.3021 0.7702988,-0.9376 1.1328124,-1.9043 l 5.4375,0 l 0,21.02731 c -1.268798,0.4834 -2.0994643,0.9807 -2.4921874,1.4942 l 0.453125,3.7617 l 10.6035149,0 l 0.453125,-3.7617 c -0.453142,-0.5135 -1.283808,-1.0108 -2.492187,-1.4942 l 0,-21.02731 l 5.4375,0 c 0.362514,0.9667 0.740089,1.6022 1.132812,1.9043 l 2.855469,-0.36328 l 0,-6.48047 l -25.3769527,0 z m 8.6757812,39.08596 c -2.7666413,0 -4.9197964,0.8577 -6.4589843,2.5722 c -1.5197046,1.7145 -2.2792969,4.3644 -2.2792969,7.9493 c 0,3.585 0.6123901,6.1659 1.8398438,7.7441 c 1.2469369,1.5782 3.2646563,2.3672 6.0507812,2.3672 c 2.786125,0 5.2121037,-0.6144 7.2773437,-1.8418 l -1.052735,-2.6016 c -1.656087,0.6235 -3.5266047,0.9356 -5.6113275,0.9356 c -1.3638373,0 -2.3962542,-0.5259 -3.0976562,-1.5781 c -0.6819186,-1.0716 -1.0234375,-2.8735 -1.0234375,-5.4063 c 0,-2.5329 0.3611457,-4.3053 1.0820313,-5.3184 c 0.7208854,-1.0131 1.6649809,-1.5195 2.8339843,-1.5195 c 1.1690035,0 2.0463579,0.1256 2.6308599,0.3789 c 0.116899,1.1301 0.311216,1.9584 0.583984,2.4844 l 2.7773437,0 c 0.253284,-0.5066 0.447601,-1.1602 0.583984,-1.959 c 0.136384,-0.7989 0.205078,-1.3622 0.205078,-1.6934 l 0,-0.6738 c -2.006789,-1.2274 -4.1206897,-1.8398 -6.3417965,-1.8398 z m 50.0019525,0 c -2.76664,0 -4.919796,0.8577 -6.458984,2.5722 c -1.519704,1.7145 -2.279297,4.3644 -2.279297,7.9493 c 0,3.585 0.614344,6.1659 1.841797,7.7441 c 1.246937,1.5782 3.262703,2.3672 6.048828,2.3672 c 2.786125,0 5.212104,-0.6144 7.277344,-1.8418 l -1.052734,-2.6016 c -1.656089,0.6235 -3.526606,0.9356 -5.611329,0.9356 c -1.363837,0 -2.396254,-0.5259 -3.097656,-1.5781 c -0.681919,-1.0716 -1.023437,-2.8735 -1.023437,-5.4063 c 0,-2.5329 0.361145,-4.3053 1.082031,-5.3184 c 0.720885,-1.0131 1.66498,-1.5195 2.833984,-1.5195 c 1.169003,0 2.046358,0.1256 2.63086,0.3789 c 0.1169,1.1301 0.311216,1.9584 0.583984,2.4844 l 2.777344,0 c 0.253284,-0.5066 0.447601,-1.1602 0.583984,-1.959 c 0.136384,-0.7989 0.205078,-1.3622 0.205078,-1.6934 l 0,-0.6738 c -2.00679,-1.2274 -4.12069,-1.8398 -6.341797,-1.8398 z m -35.55664,0.088 l -5.611328,16.7754 c -0.954687,0.2923 -1.606331,0.6612 -1.957032,1.1093 l 0.291016,2.4258 l 6.664062,0 l 0.292969,-2.4258 c -0.331218,-0.3702 -0.837612,-0.6921 -1.519531,-0.9648 l 0.730469,-2.3672 l 5.84375,0 l 0.789062,2.4551 c -0.701402,0.2728 -1.168544,0.5652 -1.402343,0.8769 l 0.292968,2.4258 l 6.837891,0 l 0.292969,-2.4258 c -0.331218,-0.3897 -0.906308,-0.7312 -1.72461,-1.0234 l -5.816406,-16.8613 l -4.003906,0 z m 43.835937,0.1445 l -0.291015,2.4258 c 0.272768,0.3702 0.808603,0.7018 1.607422,0.9941 l 0,13.3555 c -0.818302,0.3117 -1.354138,0.6336 -1.607422,0.9648 l 0.291015,2.4258 l 6.839844,0 l 0.291016,-2.4258 c -0.292252,-0.3312 -0.828087,-0.6531 -1.607422,-0.9648 l 0,-5.8438 l 6.429687,0 l 0,5.8438 c -0.818302,0.3117 -1.354138,0.6336 -1.607422,0.9648 l 0.292969,2.4258 l 6.837891,0 l 0.292968,-2.4258 c -0.292249,-0.3312 -0.828085,-0.6531 -1.607421,-0.9648 l 0,-13.3555 c 0.759852,-0.2923 1.295689,-0.6239 1.607421,-0.9941 l -0.292968,-2.4258 l -6.837891,0 l -0.292969,2.4258 c 0.272768,0.3702 0.808603,0.7018 1.607422,0.9941 l 0,4.5879 l -6.429687,0 l 0,-4.5879 c 0.759852,-0.2923 1.295687,-0.6239 1.607422,-0.9941 l -0.291016,-2.4258 l -6.839844,0 z m 19.921875,0 l -0.292968,2.4258 c 0.272766,0.3702 0.808602,0.7018 1.607421,0.9941 l 0,13.3555 c -0.818302,0.3117 -1.354139,0.6336 -1.607421,0.9648 l 0.292968,2.4258 l 13.560544,0 l 0,-5.0859 l -2.164059,-0.2617 c -0.467602,0.4286 -0.826795,1.149 -1.080079,2.1621 l -4.792968,0 l 0,-5.5821 l 4.0625,0 c 0.2338,0.6235 0.477186,1.0338 0.730468,1.2286 l 1.839844,-0.2344 l 0,-5.2031 l -1.839844,-0.2032 c -0.253282,0.2339 -0.496668,0.6421 -0.730468,1.2266 l -4.0625,0 l 0,-5.0274 l 4.558594,0 c 0.272766,1.0521 0.633913,1.7744 1.082031,2.1641 l 2.162111,-0.2637 l 0,-5.0859 l -13.326174,0 z m 15.753902,0 l -0.29297,2.4258 c 0.27277,0.3702 0.80861,0.7018 1.60743,0.9941 l 0,13.3555 c -0.81831,0.3117 -1.35415,0.6336 -1.60743,0.9648 l 0.29297,2.4258 l 7.89063,0 l 0.29297,-2.4258 c -0.3507,-0.4481 -1.23787,-0.8268 -2.66016,-1.1386 l 0,-4.6778 l 1.90039,0 c 0.40915,0 0.76835,0.3613 1.08008,1.0821 l 3.36133,7.1601 l 4.93945,0 l 0.29102,-2.25 c -0.33122,-0.4092 -0.95343,-0.7703 -1.86914,-1.082 l -2.13477,-4.0625 c -0.31173,-0.5845 -0.95356,-1.0811 -1.92773,-1.4903 c 1.24693,-0.4676 2.27935,-1.1487 3.09765,-2.0449 c 0.83779,-0.8963 1.25586,-2.0072 1.25586,-3.332 c 0,-2.2211 -0.66146,-3.7501 -1.98633,-4.5879 c -1.32487,-0.8381 -3.35045,-1.2778 -6.07812,-1.3164 l -7.45313,0 z m -69.775386,0.029 l 0,4.1797 l 1.841797,0.2344 c 0.253284,-0.1948 0.496668,-0.6051 0.730469,-1.2286 l 3.505859,0 l 0,13.5606 c -0.818303,0.3117 -1.354138,0.6336 -1.607422,0.9648 l 0.292969,2.4258 l 6.83789,0 l 0.292969,-2.4258 c -0.292251,-0.3312 -0.828086,-0.6531 -1.607422,-0.9648 l 0,-13.5606 l 3.507813,0 c 0.2338,0.6235 0.477185,1.0338 0.730468,1.2286 l 1.839844,-0.2344 l 0,-4.1797 l -16.365234,0 z m 75.298826,3.1562 l 1.72461,0 c 1.26642,0 2.23014,0.214 2.89258,0.6426 c 0.66243,0.4092 0.99414,1.1315 0.99414,2.1641 c 0,1.0326 -0.33171,1.7529 -0.99414,2.1621 c -0.64296,0.3896 -1.6263,0.582 -2.95117,0.582 l -1.66602,0 l 0,-5.5508 z m -83.457029,0.7598 l 0.410156,0 l 0.0293,0.4981 c 0.05845,1.1106 0.311648,2.347 0.759766,3.7109 l 1.109374,3.5664 l -4.177734,0 l 1.138672,-3.625 c 0.487085,-1.5782 0.730469,-2.9619 0.730469,-4.1504 z" id="path28863" inkscape:connector-curvature="0" />
    <path style="font-size:45.31422806px;font-style:normal;font-variant:normal;font-weight:normal;font-stretch:normal;text-indent:0;text-align:center;text-decoration:none;line-height:87.00000048%;letter-spacing:0px;word-spacing:0px;text-transform:none;direction:ltr;block-progression:tb;writing-mode:lr-tb;text-anchor:middle;color:#000000;fill:#f6f7fb;fill-opacity:1;fill-rule:nonzero;stroke:none;marker:none;visibility:visible;font-family:Patua One;-inkscape-font-specification:Patua One" d="m 25.317283,973.16119 l -0.453125,3.76171 c 0.422932,0.57398 1.253599,1.08787 2.492187,1.54102 l 0,20.70898 c -1.268798,0.4834 -2.099464,0.9806 -2.492187,1.4941 l 0.453125,3.7618 l 10.603515,0 l 0.453125,-3.7618 c -0.453142,-0.5135 -1.283808,-1.0107 -2.492187,-1.4941 l 0,-9.06445 l 9.96875,0 l 0,9.06445 c -1.268798,0.4834 -2.099464,0.9806 -2.492188,1.4941 l 0.453125,3.7618 l 10.603516,0 l 0.453125,-3.7618 c -0.453143,-0.5135 -1.283808,-1.0107 -2.492188,-1.4941 l 0,-20.70898 c 1.17817,-0.45315 2.008836,-0.96704 2.492188,-1.54102 l -0.453125,-3.76171 l -10.603516,0 l -0.453125,3.76171 c 0.422933,0.57398 1.253599,1.08787 2.492188,1.54102 l 0,7.11328 l -9.96875,0 l 0,-7.11328 c 1.17817,-0.45315 2.008835,-0.96704 2.492187,-1.54102 l -0.453125,-3.76171 l -10.603515,0 z m 30.886718,0 l -0.453125,3.76171 c 0.422933,0.57398 1.253599,1.08787 2.492188,1.54102 l 0,20.70898 c -1.268799,0.4834 -2.099464,0.9806 -2.492188,1.4941 l 0.453125,3.7618 l 10.603516,0 l 0.453125,-3.7618 c -0.453142,-0.5135 -1.283808,-1.0107 -2.492188,-1.4941 l 0,-20.70898 c 1.17817,-0.45315 2.008836,-0.96704 2.492188,-1.54102 l -0.453125,-3.76171 l -10.603516,0 z m 14.427735,0 l -0.453125,3.76171 c 0.422932,0.57398 1.253599,1.08787 2.492187,1.54102 l 0,20.70898 c -1.268798,0.4834 -2.099464,0.9806 -2.492187,1.4941 l 0.453125,3.7618 l 21.02539,0 l 0,-7.8848 l -3.353515,-0.40821 c -0.725028,0.6646 -1.283058,1.78265 -1.675781,3.35352 l -7.431641,0 l 0,-8.6543 l 6.298828,0 c 0.362514,0.96674 0.74009,1.60028 1.132813,1.90235 l 2.853515,-0.36328 l 0,-8.06446 l -2.853515,-0.31836 c -0.392723,0.36252 -0.770299,0.99801 -1.132813,1.9043 l -6.298828,0 l 0,-7.79492 l 7.068359,0 c 0.422933,1.63131 0.980964,2.74932 1.675782,3.35351 l 3.353515,-0.4082 l 0,-7.88476 l -20.662109,0 z m 24.425781,0 l -0.453125,3.76171 c 0.422933,0.57398 1.253598,1.08787 2.492188,1.54102 l 0,20.70898 c -1.268799,0.4834 -2.099465,0.9806 -2.492188,1.4941 l 0.453125,3.7618 l 12.507813,0 l 0.45312,-3.7618 c -0.90628,-0.78542 -2.37244,-1.40424 -4.39648,-1.85738 l 0,-7.52148 l 6.29883,0 c 0.36251,0.96667 0.74008,1.60021 1.13281,1.90234 l 2.85547,-0.36328 l 0,-8.06445 l -2.85547,-0.31836 c -0.39273,0.36251 -0.7703,0.99802 -1.13281,1.9043 l -6.29883,0 l 0,-8.24805 l 7.07031,0 c 0.42293,1.63131 0.98096,2.74932 1.67578,3.35351 l 3.35352,-0.4082 l 0,-7.88476 l -20.664063,0 z m -97.3906247,0.0449 l 0,6.48047 l 2.8554688,0.36328 c 0.3927232,-0.3021 0.7702987,-0.9376 1.1328124,-1.9043 l 5.4375,0 l 0,21.02734 c -1.2687982,0.4834 -2.0994642,0.98062 -2.4921874,1.49412 l 0.453125,3.7618 l 10.6035149,0 l 0.453125,-3.7618 c -0.453142,-0.5135 -1.283808,-1.01072 -2.492187,-1.49412 l 0,-21.02734 l 5.4375,0 c 0.362514,0.9667 0.740089,1.6022 1.132812,1.9043 l 2.855469,-0.36328 l 0,-6.48047 l -25.3769527,0 z" id="path28756" inkscape:connector-curvature="0" />
    <path style="font-size:29.22509193px;font-style:normal;font-variant:normal;font-weight:normal;font-stretch:normal;text-indent:0;text-align:center;text-decoration:none;line-height:87.00000048%;letter-spacing:0px;word-spacing:0px;text-transform:none;direction:ltr;block-progression:tb;writing-mode:lr-tb;text-anchor:middle;color:#000000;fill:#ffce55;fill-opacity:1;fill-rule:nonzero;stroke:none;marker:none;visibility:visible;font-family:Patua One;-inkscape-font-specification:Patua One" d="m 6.3426735,1012.292 c -2.7666416,0 -4.9197963,0.8578 -6.4589843,2.5723 c -1.5197047,1.7145 -2.2792969,4.3643 -2.2792969,7.9492 c 0,3.585 0.61239,6.166 1.8398438,7.7442 c 1.2469371,1.5782 3.2646561,2.3672 6.0507812,2.3672 c 2.786125,0 5.2121037,-0.6144 7.2773437,-1.8418 l -1.052735,-2.6016 c -1.656088,0.6235 -3.5266047,0.9355 -5.6113275,0.9355 c -1.3638375,0 -2.3962541,-0.5259 -3.0976562,-1.5781 c -0.6819187,-1.0716 -1.0234375,-2.8734 -1.0234375,-5.4062 c 0,-2.5329 0.3611457,-4.3053 1.0820313,-5.3184 c 0.7208855,-1.0131 1.6649808,-1.5195 2.8339843,-1.5195 c 1.1690036,0 2.0463579,0.1256 2.6308599,0.3789 c 0.1169,1.1301 0.311216,1.9584 0.583984,2.4844 l 2.7773437,0 c 0.253284,-0.5066 0.447601,-1.1602 0.583984,-1.959 c 0.136384,-0.7989 0.205078,-1.3622 0.205078,-1.6934 l 0,-0.6738 c -2.006789,-1.2274 -4.1206897,-1.8399 -6.3417965,-1.8399 z m 50.0019525,0 c -2.766641,0 -4.919796,0.8578 -6.458984,2.5723 c -1.519704,1.7145 -2.279297,4.3643 -2.279297,7.9492 c 0,3.585 0.614344,6.166 1.841797,7.7442 c 1.246937,1.5782 3.262703,2.3672 6.048828,2.3672 c 2.786125,0 5.212104,-0.6144 7.277344,-1.8418 l -1.052734,-2.6016 c -1.656089,0.6235 -3.526606,0.9355 -5.611329,0.9355 c -1.363837,0 -2.396254,-0.5259 -3.097656,-1.5781 c -0.681919,-1.0716 -1.023437,-2.8734 -1.023437,-5.4062 c 0,-2.5329 0.361145,-4.3053 1.082031,-5.3184 c 0.720885,-1.0131 1.66498,-1.5195 2.833984,-1.5195 c 1.169003,0 2.046358,0.1256 2.63086,0.3789 c 0.1169,1.1301 0.311216,1.9584 0.583984,2.4844 l 2.777344,0 c 0.253284,-0.5066 0.447601,-1.1602 0.583984,-1.959 c 0.136384,-0.7989 0.205078,-1.3622 0.205078,-1.6934 l 0,-0.6738 c -2.00679,-1.2274 -4.12069,-1.8399 -6.341797,-1.8399 z m -35.55664,0.088 l -5.611328,16.7754 c -0.954687,0.2923 -1.606331,0.6613 -1.957032,1.1094 l 0.291016,2.4258 l 6.664062,0 l 0.292969,-2.4258 c -0.331218,-0.3702 -0.837612,-0.6921 -1.519531,-0.9648 l 0.730469,-2.3672 l 5.84375,0 l 0.789062,2.455 c -0.701402,0.2728 -1.168543,0.5653 -1.402343,0.877 l 0.292968,2.4258 l 6.837891,0 l 0.292969,-2.4258 c -0.331218,-0.3897 -0.906308,-0.7312 -1.72461,-1.0234 L 24.791892,1012.38 l -4.003906,0 z m 43.835937,0.1446 l -0.291015,2.4257 c 0.272768,0.3702 0.808603,0.7019 1.607422,0.9942 l 0,13.3555 c -0.818302,0.3117 -1.354138,0.6336 -1.607422,0.9648 l 0.291015,2.4258 l 6.839844,0 l 0.291016,-2.4258 c -0.292252,-0.3312 -0.828087,-0.6531 -1.607422,-0.9648 l 0,-5.8438 l 6.429687,0 l 0,5.8438 c -0.818302,0.3117 -1.354138,0.6336 -1.607422,0.9648 l 0.292969,2.4258 l 6.837891,0 l 0.292968,-2.4258 c -0.29225,-0.3312 -0.828085,-0.6531 -1.607421,-0.9648 l 0,-13.3555 c 0.759852,-0.2923 1.295688,-0.624 1.607421,-0.9942 l -0.292968,-2.4257 l -6.837891,0 l -0.292969,2.4257 c 0.272768,0.3702 0.808603,0.7019 1.607422,0.9942 l 0,4.5879 l -6.429687,0 l 0,-4.5879 c 0.759852,-0.2923 1.295687,-0.624 1.607422,-0.9942 l -0.291016,-2.4257 l -6.839844,0 z m 19.921875,0 l -0.292968,2.4257 c 0.272767,0.3702 0.808602,0.7019 1.607421,0.9942 l 0,13.3555 c -0.818302,0.3117 -1.354138,0.6336 -1.607421,0.9648 l 0.292968,2.4258 l 13.560544,0 l 0,-5.086 l -2.164059,-0.2617 c -0.467602,0.4286 -0.826795,1.149 -1.080079,2.1621 l -4.792968,0 l 0,-5.582 l 4.0625,0 c 0.2338,0.6235 0.477185,1.0337 0.730468,1.2285 l 1.839844,-0.2344 l 0,-5.2031 l -1.839844,-0.2031 c -0.253283,0.2339 -0.496668,0.6421 -0.730468,1.2266 l -4.0625,0 l 0,-5.0274 l 4.558594,0 c 0.272767,1.0521 0.633913,1.7744 1.082031,2.1641 l 2.162111,-0.2637 l 0,-5.0859 l -13.326174,0 z m 15.753902,0 l -0.29297,2.4257 c 0.27277,0.3702 0.80861,0.7019 1.60743,0.9942 l 0,13.3555 c -0.81831,0.3117 -1.35415,0.6336 -1.60743,0.9648 l 0.29297,2.4258 l 7.89063,0 l 0.29297,-2.4258 c -0.3507,-0.4481 -1.23787,-0.8269 -2.66016,-1.1387 l 0,-4.6777 l 1.90039,0 c 0.40915,0 0.76835,0.3612 1.08008,1.082 l 3.36133,7.1602 l 4.93945,0 l 0.29102,-2.25 c -0.33122,-0.4092 -0.95343,-0.7703 -1.86915,-1.082 l -2.13476,-4.0625 c -0.31173,-0.5845 -0.95356,-1.0811 -1.92774,-1.4903 c 1.24694,-0.4676 2.27936,-1.1487 3.09766,-2.0449 c 0.83779,-0.8963 1.25586,-2.0072 1.25586,-3.332 c 0,-2.2211 -0.66146,-3.7501 -1.98633,-4.5879 c -1.32487,-0.8381 -3.35045,-1.2778 -6.07812,-1.3164 l -7.45313,0 z m -69.775386,0.029 l 0,4.1797 l 1.841797,0.2343 c 0.253284,-0.1948 0.496668,-0.605 0.730469,-1.2285 l 3.505859,0 l 0,13.5606 c -0.818303,0.3117 -1.354138,0.6336 -1.607422,0.9648 l 0.292969,2.4258 l 6.83789,0 l 0.292969,-2.4258 c -0.292251,-0.3312 -0.828086,-0.6531 -1.607422,-0.9648 l 0,-13.5606 l 3.507813,0 c 0.2338,0.6235 0.477184,1.0337 0.730468,1.2285 l 1.839844,-0.2343 l 0,-4.1797 l -16.365234,0 z m 75.298826,3.1562 l 1.72461,0 c 1.26642,0 2.23014,0.2159 2.89258,0.6445 c 0.66243,0.4092 0.99414,1.1296 0.99414,2.1622 c 0,1.0326 -0.33171,1.7529 -0.99414,2.1621 c -0.64296,0.3896 -1.6263,0.5839 -2.95117,0.5839 l -1.66602,0 l 0,-5.5527 z m -83.457029,0.7598 l 0.410156,0 l 0.0293,0.498 c 0.05845,1.1106 0.311648,2.3471 0.759766,3.711 l 1.109374,3.5664 l -4.177734,0 l 1.138672,-3.625 c 0.487085,-1.5782 0.730469,-2.9619 0.730469,-4.1504 z" id="path28766" inkscape:connector-curvature="0" />
  </g>
</svg>
