<?xml version="1.0" encoding="UTF-8" standalone="no"?>
<!-- Created with Inkscape (http://www.inkscape.org/) -->

<svg xmlns:dc="http://purl.org/dc/elements/1.1/" xmlns:cc="http://creativecommons.org/ns#" xmlns:rdf="http://www.w3.org/1999/02/22-rdf-syntax-ns#" xmlns:svg="http://www.w3.org/2000/svg" xmlns="http://www.w3.org/2000/svg" xmlns:sodipodi="http://sodipodi.sourceforge.net/DTD/sodipodi-0.dtd" xmlns:inkscape="http://www.inkscape.org/namespaces/inkscape" width="131.30637" height="89" id="svg22569" version="1.1" inkscape:version="0.49 r12742" viewBox="0 0 131.30636 89.000002" sodipodi:docname="viajero_icon.svg" inkscape:export-filename="/home/pablolizardo/sources/site/images/games/viajero_icon.png" inkscape:export-xdpi="90" inkscape:export-ydpi="90">
  <defs id="defs22571" />
  <sodipodi:namedview id="base" pagecolor="#ffffff" bordercolor="#666666" borderopacity="1.0" inkscape:pageopacity="0.0" inkscape:pageshadow="2" inkscape:zoom="3.959798" inkscape:cx="78.871103" inkscape:cy="27.165688" inkscape:document-units="px" inkscape:current-layer="layer1" showgrid="false" fit-margin-top="0" fit-margin-left="0" fit-margin-right="0" fit-margin-bottom="0" inkscape:window-width="1920" inkscape:window-height="1017" inkscape:window-x="0" inkscape:window-y="27" inkscape:window-maximized="1" />
  <metadata id="metadata22574">
    <rdf:RDF>
      <cc:Work rdf:about="">
        <dc:format>image/svg+xml</dc:format>
        <dc:type rdf:resource="http://purl.org/dc/dcmitype/StillImage" />
        <dc:title></dc:title>
      </cc:Work>
    </rdf:RDF>
  </metadata>
  <g inkscape:label="Capa 1" inkscape:groupmode="layer" id="layer1" transform="translate(2.0371595e-7,-963.3622)">
    <path style="font-style:normal;font-variant:normal;font-weight:normal;font-stretch:normal;text-indent:0;text-align:start;text-decoration:none;line-height:normal;letter-spacing:normal;word-spacing:normal;text-transform:none;direction:ltr;block-progression:tb;writing-mode:lr-tb;text-anchor:start;baseline-shift:baseline;color:#000000;color-interpolation:sRGB;color-interpolation-filters:linearRGB;fill:#f6f7fb;fill-opacity:0.99912851;stroke:none;stroke-width:0.40000001;marker:none;visibility:visible;display:inline;overflow:visible;enable-background:accumulate;clip-rule:nonzero;color-rendering:auto;image-rendering:auto;shape-rendering:auto;text-rendering:auto;font-family:sans-serif;-inkscape-font-specification:sans-serif" d="m 50.454666,963.53861 l -0.529291,0.5293 l -36.31021,36.31019 l 0,-35.78259 l 0,-0.7483 l -1.4982,0 l 0,0.7483 l 0,37.58949 l 1.27752,0.5343 l 37.589461,-37.58769 l 0.53445,-0.5361 l -1.06373,-1.0569 z m 18.79386,0 l -0.52755,0.5293 l -37.589461,37.58779 l -0.53618,0.5293 l 1.06546,1.0636 l 0.52757,-0.5293 L 69.77781,965.13161 l 0.53618,-0.5361 l -1.065464,-1.0569 z m 46.602784,0.3086 l 0,0.7483 l 0,35.77569 L 98.291867,982.81001 l -0.52928,-0.5293 l -1.06375,1.0655 l 0.53446,0.5293 l 18.838683,18.84379 l 1.28443,-0.5343 l 0,-37.58949 l 0,-0.7483 l -1.5051,0 z m -28.33648,0.2207 l -18.266304,18.2646 l -0.0518,-0.059 l -1.06374,1.0655 l 0.0517,0.059 l -18.259401,18.25769 l -0.53445,0.5293 l 1.063741,1.0636 l 0.52928,-0.5275 l 18.26458,-18.26629 l 18.266304,18.26629 l 1.27753,-0.5361 l 0,-37.58779 l -1.27753,-0.5293 z m -74.356545,48.71649 l -0.74995,0.7482 l 0,18.0456 l -11.2666708,0 l -0.74823005,0 l 0,1.5052 l 0.74823005,0 l 11.2666708,0 l 0,18.037 l 0.74995,0.7568 l 18.79388,0 l 0.74822,0 l 0,-1.5051 l -0.74822,0 l -18.04563,0 l 0,-17.2887 l 16.16641,0 l 0.74823,0 l 0,-1.5052 l -0.74823,0 l -16.16641,0 l 0,-17.2888 l 18.04563,0 l 0.74822,0 l 0,-1.505 l -0.74822,0 l -18.79388,0 z m 31.94837,0 l -0.74823,0.7482 l 0,37.5878 l 1.27752,0.5361 l 18.266301,-18.2646 l 18.264594,18.2646 l 0.52928,0.5293 l 1.06374,-1.0654 l -0.53619,-0.5276 l -18.264574,-18.2664 l 18.264574,-18.2577 l -0.52755,-1.2843 l -37.589465,0 z m 55.854035,0.2207 l -18.79385,18.7938 l 0,1.0638 l 18.79385,18.7938 l 1.05685,0 l 18.79386,-18.7938 l 0,-1.0638 l -18.79386,-18.7938 l -1.05685,0 z m 0.52928,1.593 l 17.73703,17.737 l -17.73703,17.7284 l -17.73701,-17.7284 l 17.73701,-17.737 z m 0,16.7302 l -0.99822,0.9981 l 0.99822,0.9983 l 0.99823,-0.9983 l -0.99823,-0.9981 z" id="path12051" inkscape:connector-curvature="0" />
  </g>
</svg>
